<?xml version="1.0" standalone="no"?>
<!DOCTYPE svg PUBLIC "-//W3C//DTD SVG 20010904//EN"
 "http://www.w3.org/TR/2001/REC-SVG-20010904/DTD/svg10.dtd">
<svg version="1.0" xmlns="http://www.w3.org/2000/svg"
 width="1335.000000pt" height="641.000000pt" viewBox="0 0 1335.000000 641.000000"
 preserveAspectRatio="xMidYMid meet">
<metadata>
Created by potrace 1.15, written by Peter Selinger 2001-2017
</metadata>
<g transform="translate(0.000000,641.000000) scale(0.100000,-0.100000)"
fill="#000000" stroke="none">
<path d="M20 5639 l0 -771 575 4 c316 2 575 0 575 -4 0 -5 -7 -8 -17 -8 -9 0
-14 -3 -10 -6 3 -4 109 2 234 11 153 12 277 16 377 12 138 -5 151 -7 166 -27
l16 -21 146 17 c135 16 151 17 219 2 80 -18 272 -15 296 4 7 6 19 8 28 5 8 -4
17 -2 20 3 3 5 16 5 31 -2 20 -9 27 -8 37 6 10 14 18 15 37 8 67 -27 238 -33
655 -23 231 6 464 11 518 11 l98 0 -16 30 c-22 42 -19 43 22 5 73 -67 57 -34
-18 39 -58 56 -73 76 -61 81 14 5 31 -10 32 -27 0 -5 6 -8 14 -8 13 0 28 55
30 110 1 8 11 16 24 18 25 4 31 22 6 22 -8 0 -12 5 -9 10 3 6 20 10 37 10 23
0 28 -3 20 -12 -13 -17 -25 -128 -13 -128 4 0 11 13 14 28 5 25 11 29 41 30
20 1 36 -3 36 -8 0 -5 7 -10 15 -12 10 -2 12 -7 5 -18 -9 -13 -11 -13 -20 0
-8 13 -10 13 -10 -2 0 -9 5 -18 11 -20 7 -2 7 -17 -1 -48 -6 -25 -12 -53 -14
-62 -1 -10 -5 -21 -9 -24 -14 -14 -7 -24 17 -24 22 0 25 6 42 110 20 120 35
145 29 49 -3 -41 0 -59 7 -57 6 2 12 16 13 32 0 15 5 30 11 34 18 12 25 45 12
54 -10 7 -9 11 4 21 11 9 13 18 7 29 -6 11 -5 19 2 23 7 5 3 14 -11 27 -18 17
-19 22 -8 36 8 10 15 30 17 47 2 16 11 35 22 43 10 7 16 19 13 27 -4 9 0 15 8
15 7 0 28 16 47 35 37 40 46 42 69 18 16 -16 16 -16 0 -10 -10 3 -18 2 -18 -4
0 -6 -4 -8 -8 -5 -17 10 -34 -11 -27 -33 6 -20 9 -21 23 -8 10 8 22 16 27 18
22 8 85 55 89 65 3 8 -6 9 -32 3 -20 -4 -37 -9 -38 -11 -2 -6 -34 25 -34 33 0
5 16 9 35 9 28 0 35 4 35 20 0 13 9 22 25 26 19 5 23 9 15 19 -7 9 -7 15 2 21
19 13 51 11 56 -4 2 -6 -4 -12 -13 -12 -12 0 -15 -5 -11 -16 4 -10 -1 -25 -10
-35 -9 -10 -14 -24 -11 -31 2 -7 0 -21 -4 -30 -12 -22 -154 -138 -169 -138
-17 0 -6 -68 21 -129 14 -33 32 -54 62 -72 46 -29 119 -43 135 -27 6 6 17 8
25 5 12 -4 12 -16 4 -64 -5 -32 -14 -61 -19 -64 -11 -7 -14 -72 -4 -87 11 -18
44 -14 50 6 2 9 10 51 16 92 6 41 16 91 21 111 17 66 15 67 -71 42 -22 -6 -20
-3 12 26 23 20 42 30 50 25 7 -4 10 -3 5 1 -9 10 31 55 50 55 8 0 36 11 64 25
74 38 113 26 232 -72 16 -13 33 -20 38 -17 6 3 18 0 28 -8 9 -7 6 -3 -7 10
-30 29 -19 28 35 -4 24 -14 41 -29 38 -34 -6 -10 47 -50 68 -50 8 0 20 7 28
16 7 8 25 22 41 30 27 14 26 11 -17 -43 -123 -154 -124 -156 -172 -150 -28 3
-43 1 -43 -7 0 -14 20 -44 20 -31 0 6 9 11 20 11 35 0 16 -29 -25 -39 -11 -2
21 -5 70 -5 50 0 82 3 72 7 -17 6 -17 8 -3 20 17 15 38 7 30 -12 -3 -8 6 -14
25 -15 26 -2 42 9 105 75 70 73 75 76 76 51 0 -23 9 -32 48 -52 26 -13 83 -50
127 -81 78 -56 82 -58 140 -56 49 2 64 6 83 27 13 13 26 24 29 24 4 0 -4 -11
-17 -25 -30 -32 -24 -31 46 5 56 29 80 32 56 8 -21 -21 -13 -28 32 -28 57 0
75 7 69 28 -2 9 3 26 12 37 16 20 16 20 10 -2 -5 -19 -2 -23 17 -23 l23 -1
-25 -14 c-22 -13 19 -15 345 -17 515 -3 591 -4 748 -13 124 -6 159 -14 125
-28 -8 -3 -6 -6 5 -6 9 -1 17 5 17 12 0 8 3 8 9 -2 7 -11 26 -13 98 -6 153 14
178 13 175 -7 -4 -25 38 -23 90 3 34 18 51 20 104 14 34 -3 143 -6 243 -6 153
0 179 -2 174 -15 -6 -17 10 -18 252 -2 99 7 311 12 471 12 263 1 292 3 308 19
19 18 31 23 21 8 -3 -6 3 -15 14 -20 26 -14 52 -14 29 0 -26 15 -23 40 4 35
16 -2 23 -10 23 -26 0 -20 8 -25 55 -36 30 -7 62 -11 71 -8 23 7 32 46 14 60
-8 6 -15 19 -15 28 0 8 -8 21 -19 27 -16 10 -19 49 -4 49 14 0 43 -23 43 -34
0 -8 7 -27 15 -42 8 -16 15 -40 16 -54 0 -14 3 -19 6 -12 8 19 23 4 23 -24 l0
-25 193 2 c105 0 231 -2 280 -6 54 -4 87 -3 87 3 0 6 -7 12 -15 16 -17 6 -21
46 -5 46 6 0 15 -11 19 -24 5 -13 17 -26 26 -30 24 -9 25 -8 18 11 -7 17 -6
17 20 0 28 -18 147 -25 147 -8 0 14 -26 32 -35 23 -5 -4 -5 1 -2 11 5 12 1 17
-14 17 -14 0 -21 9 -25 30 -4 17 -13 30 -20 30 -7 0 -11 6 -8 13 5 15 31 16
52 3 8 -4 11 -14 8 -22 -3 -9 2 -14 14 -14 11 0 20 -4 20 -10 0 -5 0 -12 1
-14 1 -14 74 -76 89 -76 16 0 15 4 -7 47 -13 26 -28 52 -33 57 -13 13 -13 36
0 36 6 0 15 -12 21 -27 6 -16 20 -47 31 -70 20 -42 22 -43 69 -43 36 0 49 4
49 15 0 8 9 19 20 25 10 6 17 17 14 24 -3 8 0 17 7 22 9 5 10 2 6 -9 -3 -9 -1
-19 4 -23 6 -3 2 -12 -10 -21 -20 -14 -20 -40 0 -27 5 3 87 7 183 8 95 2 178
6 185 10 7 4 11 15 10 24 -4 40 1 46 17 24 20 -28 28 -28 44 3 14 27 35 33 43
13 3 -7 6 -3 6 10 1 13 7 22 16 22 11 0 14 -7 9 -25 -5 -20 -2 -25 13 -25 11
0 28 -7 39 -15 10 -8 25 -15 33 -15 13 0 12 9 -4 55 -6 18 -5 18 13 -3 11 -12
22 -28 24 -34 6 -17 149 -22 160 -6 6 10 8 10 8 1 0 -7 11 -13 25 -13 15 0 25
6 25 14 0 25 19 28 46 7 23 -18 41 -21 119 -21 131 0 275 11 269 21 -3 5 2 9
10 9 8 0 18 -5 21 -10 3 -6 18 -9 33 -9 17 1 21 3 10 6 -30 8 -22 40 11 45 18
3 27 0 25 -6 -2 -6 0 -17 5 -25 8 -12 48 -12 270 -1 215 11 259 16 250 27 -9
10 -8 13 4 13 8 0 17 -5 19 -12 3 -8 32 -12 90 -12 69 1 85 -2 81 -12 -4 -11
7 -14 43 -15 27 0 139 -4 249 -8 204 -8 296 0 324 27 14 13 10 96 -6 138 -4
12 -3 15 5 10 20 -12 14 36 -8 69 -11 17 -20 38 -20 48 0 15 3 16 20 7 19 -10
20 -8 18 49 -1 45 -5 58 -13 51 -14 -12 -51 23 -41 38 3 6 -1 12 -9 16 -9 3
-15 18 -15 36 0 23 4 30 19 30 24 0 36 16 19 23 -10 4 -9 8 2 16 11 8 12 11 2
11 -8 0 -16 -8 -19 -19 -5 -21 -43 -18 -43 4 0 16 60 55 84 55 9 0 16 7 16 15
0 13 -3 13 -20 3 -10 -7 -22 -9 -26 -5 -9 9 15 37 32 37 19 0 20 456 2 463
-10 4 -10 6 0 6 9 1 12 42 12 170 0 160 -1 169 -20 174 -11 3 -23 1 -26 -4 -7
-12 -24 -12 -24 1 0 5 14 13 32 18 17 4 33 13 36 20 4 13 -34 2 -96 -28 -24
-12 -39 -14 -43 -8 -10 15 -49 0 -43 -17 8 -21 -34 -39 -61 -27 -15 7 -26 7
-33 0 -7 -7 -16 -7 -29 0 -22 12 -49 0 -39 -17 4 -6 17 -11 28 -11 12 0 18 -3
14 -7 -12 -13 -89 -2 -133 19 -32 15 -43 26 -44 44 -2 37 -3 42 -13 51 -5 5
-6 3 -2 -4 9 -15 -20 -18 -29 -3 -7 11 39 25 54 15 6 -3 11 1 11 9 0 8 -6 13
-13 10 -7 -2 -21 2 -32 9 -17 13 -17 14 11 16 16 1 73 2 128 2 89 0 99 2 103
20 6 23 21 25 29 4 8 -19 24 -20 24 -1 0 8 13 16 30 18 32 5 37 -1 18 -20 -17
-17 -1 -15 28 5 20 13 30 14 44 5 14 -9 21 -8 30 3 6 8 9 19 5 24 -3 7 0 8 9
5 9 -4 16 -1 16 6 0 8 -9 11 -26 7 -18 -3 -22 -1 -15 6 19 19 12 27 -24 27
-21 0 -35 -5 -35 -12 0 -10 -3 -9 -9 1 -6 10 -14 11 -27 3 -13 -7 -21 -6 -31
4 -12 11 -94 14 -451 14 l-437 0 -40 -45 c-41 -47 -55 -55 -55 -30 0 8 5 15
10 15 6 0 10 5 10 11 0 7 8 18 18 25 11 9 12 13 4 14 -23 0 -72 -43 -93 -84
-24 -47 -40 -60 -51 -43 -4 6 -2 15 5 19 9 6 9 8 -1 8 -9 0 -8 7 4 25 9 14 23
25 32 25 13 0 12 3 -4 21 -16 17 -16 22 -4 29 10 6 -107 10 -308 10 -256 0
-322 -3 -316 -12 6 -10 4 -10 -7 0 -9 8 -56 12 -158 12 -81 0 -141 -4 -135 -8
6 -4 14 -29 18 -57 3 -27 10 -63 16 -80 5 -16 17 -70 26 -120 10 -49 22 -98
28 -109 8 -14 8 -20 -1 -23 -16 -6 -17 -24 -2 -21 6 2 22 -30 35 -71 20 -64
21 -77 9 -94 -13 -19 -14 -18 -30 19 -8 21 -18 48 -21 61 -4 13 -9 25 -13 28
-10 5 -1 -57 10 -71 12 -14 -1 -54 -17 -54 -8 0 -14 4 -14 9 0 5 -6 16 -13 23
-15 16 -37 64 -37 81 1 16 39 -34 40 -50 0 -7 5 -13 10 -13 13 0 13 17 -1 25
-6 4 -8 13 -5 21 3 7 -4 18 -14 24 -24 13 -26 33 -5 50 8 7 12 17 8 23 -3 6
-1 7 5 3 7 -4 12 -17 13 -29 0 -12 3 -16 6 -10 9 25 -16 79 -38 80 -16 2 -20
-2 -16 -18 5 -18 2 -20 -26 -13 -44 9 -46 11 -45 42 1 15 -1 37 -6 50 -6 18
-4 22 13 22 23 0 26 7 12 29 -5 8 -16 11 -27 7 -10 -4 -21 -1 -26 6 -13 21 -9
26 13 21 16 -4 20 -2 17 8 -3 8 -1 22 4 31 7 15 12 16 28 5 11 -6 20 -19 20
-29 0 -18 14 -31 22 -22 6 5 -2 44 -25 134 -6 25 -10 55 -8 68 2 20 -2 22 -43
22 -34 0 -46 -4 -46 -15 0 -8 -5 -15 -11 -15 -6 0 -9 7 -5 15 5 13 -39 15
-360 15 -321 0 -365 -2 -360 -15 3 -8 1 -15 -4 -15 -6 0 -10 7 -10 15 0 11
-12 15 -46 15 l-47 0 6 -50 c5 -39 3 -52 -8 -57 -8 -3 -12 -9 -9 -14 3 -5 1
-9 -4 -9 -11 0 -34 25 -28 31 2 2 6 25 9 51 l6 46 -152 1 c-84 0 -145 -3 -137
-6 59 -20 128 -68 117 -80 -4 -3 3 -17 13 -31 23 -28 20 -37 -8 -28 -25 8 -36
34 -21 52 8 10 3 16 -24 28 -19 7 -37 19 -41 24 -3 6 -20 13 -36 17 -17 4 -30
10 -30 15 0 5 -54 9 -121 9 -102 -1 -118 -3 -108 -15 15 -18 5 -18 -14 0 -11
12 -15 11 -25 -5 -8 -13 -9 -19 -1 -19 5 0 7 -4 4 -10 -3 -6 1 -7 9 -4 19 7
20 -2 5 -45 -9 -26 -14 -29 -26 -20 -7 7 -12 18 -9 26 3 7 -1 13 -9 13 -23 0
-29 40 -8 55 10 7 14 17 10 21 -4 5 -12 2 -18 -6 -8 -13 -10 -13 -18 0 -6 8
-13 11 -17 7 -4 -3 -1 -13 6 -22 7 -9 10 -18 7 -21 -3 -3 2 -25 12 -47 25 -59
36 -120 20 -115 -7 2 -17 13 -22 24 -6 10 -14 26 -19 34 -13 22 -55 112 -61
133 -6 16 -26 17 -248 17 l-241 -1 4 -35 c2 -18 0 -34 -4 -34 -4 0 -8 16 -8
35 l0 35 -173 0 c-121 0 -177 -4 -185 -12 -9 -9 -12 -9 -12 0 0 7 -16 12 -43
12 -36 0 -46 -4 -57 -25 -7 -14 -15 -23 -17 -21 -3 2 0 14 7 25 l11 22 -215
-1 c-176 -1 -215 -4 -220 -16 -3 -8 -16 -14 -29 -14 -13 0 -31 -8 -40 -18 -15
-16 -15 -21 -3 -37 8 -11 11 -25 8 -33 -3 -8 0 -17 5 -21 6 -3 13 -16 17 -28
5 -17 3 -23 -7 -23 -8 0 -17 -7 -21 -15 -6 -18 2 -45 15 -45 5 0 9 -11 9 -25
0 -16 -6 -25 -16 -25 -9 0 -12 5 -8 12 4 7 3 8 -4 4 -12 -7 -16 4 -13 37 1 9
-3 17 -9 17 -7 0 -9 7 -6 17 6 15 4 15 -14 -2 -24 -22 -26 -37 -3 -28 13 5 15
2 10 -11 -4 -10 -7 -27 -8 -39 0 -12 -3 -16 -6 -9 -4 10 -8 10 -19 1 -13 -10
-13 -8 -4 16 7 18 7 31 0 39 -5 7 -13 45 -16 85 -6 57 -4 75 7 82 9 6 10 9 2
9 -7 0 -10 7 -7 15 4 8 10 13 14 10 10 -6 40 22 40 36 0 15 -17 10 -24 -6 -7
-19 -36 -20 -36 0 0 22 -117 18 -130 -4 -8 -14 -9 -14 -10 2 0 16 -19 17 -254
17 -182 0 -257 -3 -262 -12 -4 -7 -3 -8 4 -4 7 4 12 3 12 -3 0 -20 -19 -21
-25 -2 -6 20 -17 20 -411 21 -296 0 -404 -3 -404 -11 0 -9 -3 -9 -14 0 -10 8
-574 11 -2145 11 -1893 0 -2132 -2 -2138 -15 -5 -13 -7 -13 -20 2 -10 13 -16
15 -19 6 -3 -7 -14 -13 -24 -13 -10 0 -21 6 -24 13 -3 8 -8 7 -16 -5 -14 -22
-45 -24 -36 -3 3 9 0 15 -8 15 -7 0 -19 -7 -26 -15 -16 -19 -30 -19 -30 0 0
13 -118 14 -940 15 l-940 0 0 -771z m9127 702 c8 -20 17 -30 20 -23 8 21 23
13 23 -14 0 -15 4 -23 10 -19 6 4 9 14 8 23 -2 9 3 17 10 18 6 1 17 2 23 3 7
1 9 14 5 39 -6 35 -5 35 15 -13 11 -27 25 -51 30 -53 15 -6 10 -42 -5 -42 -19
0 -15 -45 7 -70 17 -20 13 -30 -15 -30 -10 0 -18 -7 -18 -15 0 -8 9 -15 20
-15 11 0 20 6 20 14 0 7 7 19 15 26 19 16 19 30 1 30 -22 0 -26 13 -10 28 12
11 15 10 21 -3 3 -10 19 -31 34 -48 16 -17 29 -37 29 -44 0 -19 19 -26 35 -13
12 10 19 8 35 -11 10 -13 19 -32 20 -41 0 -21 15 -24 27 -5 5 7 10 -5 14 -33
4 -25 11 -60 17 -78 9 -28 9 -33 -3 -28 -23 8 -24 -5 -4 -68 18 -59 17 -76 -3
-76 -6 0 -8 9 -5 20 3 13 0 20 -9 20 -19 0 -30 -28 -15 -43 14 -14 15 -47 1
-47 -5 0 -10 11 -10 24 0 13 -7 26 -15 30 -8 3 -14 15 -12 28 1 14 -3 23 -13
23 -8 0 -16 10 -18 23 -5 31 -32 29 -32 -3 0 -14 -3 -24 -7 -24 -26 4 -33 -3
-27 -25 4 -18 1 -25 -15 -29 -13 -3 -19 -11 -15 -20 5 -15 -21 -31 -37 -21 -5
3 -9 14 -9 25 0 12 -7 19 -20 19 -11 0 -20 -6 -20 -14 0 -18 -17 -29 -30 -21
-8 5 -8 11 0 20 15 18 -1 26 -40 19 -28 -6 -31 -10 -26 -33 12 -48 11 -55 -8
-59 -14 -3 -17 0 -13 11 4 11 0 15 -12 14 -13 -1 -17 -7 -14 -22 4 -15 2 -17
-5 -6 -6 8 -17 11 -26 8 -10 -4 -16 -1 -16 8 0 7 -5 17 -10 20 -6 4 -9 1 -8
-7 2 -7 -5 -12 -16 -11 -20 1 -20 14 -2 -272 3 -56 2 -70 -4 -45 -5 19 -11 71
-15 115 -3 44 -9 98 -12 120 -4 22 -5 51 -4 63 1 13 -3 37 -9 53 -10 23 -10
32 0 44 11 13 14 14 24 0 8 -10 15 -12 26 -5 13 8 12 10 -2 10 -19 0 -22 21
-9 54 6 16 10 13 24 -22 9 -23 19 -42 23 -42 3 0 2 4 -1 10 -3 5 1 22 9 37
l14 28 7 -27 c7 -29 35 -39 35 -13 0 8 6 15 13 15 7 1 5 6 -5 14 -10 7 -18 22
-18 33 0 10 -5 24 -11 30 -6 6 -9 21 -6 34 4 22 5 22 17 -9 13 -36 33 -38 38
-4 3 22 34 46 45 35 3 -3 0 -12 -8 -20 -12 -11 -12 -17 -2 -27 9 -10 14 -11
19 -2 4 6 8 8 8 4 0 -3 3 -14 7 -24 5 -13 3 -15 -7 -9 -10 6 -12 4 -7 -7 6
-17 -25 -53 -36 -41 -4 3 -7 1 -7 -5 0 -16 23 -15 38 0 16 16 33 -7 24 -31 -5
-14 -3 -14 11 -2 9 7 17 22 17 32 0 11 6 19 14 19 21 0 30 20 17 33 -8 8 -11
6 -11 -9 0 -14 -2 -16 -9 -5 -5 7 -7 21 -4 30 2 10 -3 23 -11 30 -18 15 -21
47 -6 56 5 3 12 -5 16 -19 6 -25 7 -25 30 -8 29 21 30 27 3 29 -28 2 -35 11
-21 25 20 20 15 40 -8 33 -13 -4 -20 -2 -21 7 -1 28 -8 51 -16 57 -5 3 -16 18
-25 32 -15 23 -15 29 -2 54 8 16 22 33 31 40 11 8 13 14 5 19 -17 10 -32 -2
-32 -25 0 -12 -7 -19 -19 -19 -20 0 -39 32 -22 38 16 5 13 22 -4 22 -8 0 -15
6 -15 13 0 7 -9 20 -19 29 -13 11 -18 24 -14 40 5 21 4 22 -11 7 -15 -14 -15
-18 -1 -50 9 -19 23 -45 30 -59 13 -23 13 -25 -8 -31 -25 -6 -47 18 -27 31 9
6 8 16 -5 44 -9 20 -20 34 -24 31 -4 -2 -8 9 -8 25 0 17 2 28 5 25 2 -2 11 3
19 11 19 19 38 5 60 -45z m-1318 -8 c10 -50 15 -158 12 -244 -1 -14 -10 -35
-22 -47 -18 -20 -19 -24 -5 -38 9 -8 20 -13 25 -9 6 3 9 -18 9 -50 -1 -31 -5
-58 -10 -61 -11 -7 -10 -44 1 -44 5 0 7 -9 4 -20 -8 -31 -19 -32 -18 -2 0 17
-6 28 -17 30 -14 3 -18 -3 -18 -23 0 -16 -13 -40 -32 -61 -18 -19 -36 -43 -40
-54 -6 -17 -4 -18 17 -10 36 14 39 -4 8 -37 -16 -15 -39 -45 -53 -65 -13 -20
-28 -34 -32 -32 -4 3 -8 36 -8 74 0 51 4 69 15 74 8 3 15 12 15 19 0 8 7 20
15 27 9 7 14 26 12 45 -2 27 -6 32 -24 31 -14 -1 -18 -5 -12 -10 14 -15 11
-53 -5 -59 -11 -4 -14 3 -11 31 2 20 6 44 9 53 4 8 0 29 -9 45 -19 37 -21 209
-2 221 6 4 18 16 25 25 12 15 11 17 -7 13 -20 -4 -20 -3 -4 28 12 24 12 29 2
20 -12 -9 -14 -2 -15 43 -1 30 2 54 7 54 5 0 9 -6 10 -12 0 -7 5 -1 11 15 5
15 16 27 24 27 8 0 14 5 14 10 0 19 28 10 33 -11 5 -20 7 -21 23 -5 9 9 14 20
11 23 -8 7 11 43 22 43 5 0 14 -26 20 -57z m4203 -15 c-7 -7 -12 -16 -12 -22
0 -5 3 -6 7 -3 4 4 13 -7 20 -25 13 -30 12 -34 -6 -50 -12 -9 -21 -20 -21 -24
0 -15 -44 -54 -61 -54 -21 0 -69 -42 -69 -60 0 -16 -104 -120 -120 -120 -5 0
-10 -6 -10 -14 0 -7 -7 -19 -16 -27 -13 -10 -17 -10 -24 0 -9 16 -30 6 -30
-14 0 -8 -11 -22 -25 -31 -13 -9 -27 -24 -30 -34 -3 -10 -15 -20 -25 -23 -11
-3 -20 -12 -20 -21 0 -9 -4 -16 -10 -16 -5 0 -7 6 -4 14 6 15 -23 29 -46 24
-23 -5 -21 21 2 33 29 16 42 29 51 53 6 15 4 17 -13 13 -29 -8 -25 6 12 33 25
18 30 19 25 6 -4 -10 -3 -15 3 -11 6 3 10 13 10 21 0 8 7 14 15 14 8 0 15 7
15 15 0 9 19 28 43 43 24 15 44 32 45 37 2 9 19 14 69 18 16 1 21 7 17 19 -2
9 5 31 17 50 11 18 19 26 16 16 -4 -10 1 -18 12 -21 14 -3 17 2 14 27 -1 17 0
23 3 14 6 -19 34 -25 34 -9 0 5 12 9 28 9 18 -1 38 10 59 30 17 17 28 34 25
37 -13 13 -33 3 -42 -20 -5 -14 -14 -25 -20 -25 -15 0 -12 26 5 40 8 7 15 17
15 23 0 5 10 18 22 28 23 21 39 26 20 7z m-2318 -58 c78 -52 94 -76 54 -82
-13 -2 -23 -8 -23 -15 0 -18 -15 -29 -23 -16 -5 8 -13 9 -22 3 -12 -7 -12 -13
-1 -32 9 -18 9 -31 2 -52 -10 -25 -9 -27 9 -21 23 7 28 -13 5 -21 -8 -4 -15
-12 -15 -19 0 -8 -7 -21 -16 -29 -27 -28 0 -17 36 14 41 34 47 36 54 13 2 -10
4 -2 3 17 -2 35 -2 35 41 36 27 1 46 -4 51 -13 6 -12 9 -12 20 1 11 13 10 17
-3 22 -9 3 -16 10 -16 15 0 5 14 2 30 -6 25 -13 29 -19 20 -34 -5 -11 -15 -21
-21 -23 -6 -2 -12 -13 -13 -24 -1 -25 -40 -71 -86 -103 l-35 -24 24 26 c24 27
24 27 3 27 -12 0 -21 -5 -19 -12 3 -16 -44 -39 -65 -32 -14 4 -18 0 -18 -20 0
-75 -38 31 -43 119 -1 22 -7 45 -14 50 -17 14 -28 85 -14 85 20 0 12 20 -11
30 -13 5 -17 9 -10 9 7 1 12 14 12 31 0 19 6 33 16 37 11 4 12 8 4 13 -7 5 -9
20 -5 44 4 20 8 36 10 36 1 0 37 -23 79 -50z m2980 -85 c9 -9 20 -23 24 -32 8
-13 14 -11 40 17 37 38 66 36 56 -5 -5 -19 -2 -25 10 -25 9 0 16 -8 16 -20 0
-24 -25 -26 -38 -3 -12 21 -42 10 -42 -17 0 -11 -6 -20 -14 -20 -8 0 -18 -5
-22 -11 -4 -8 0 -9 15 -4 11 3 21 4 21 1 0 -20 -17 -37 -46 -46 -19 -6 -34
-16 -34 -21 0 -15 -43 -28 -57 -17 -20 16 -55 -1 -48 -22 7 -23 -33 -39 -46
-19 -7 11 -12 12 -28 2 -13 -8 -22 -9 -26 -3 -3 6 -15 10 -26 10 -19 0 -25 11
-12 23 3 4 12 2 20 -4 10 -9 13 -6 13 18 0 34 16 54 37 46 12 -5 14 -1 8 17
-6 18 -4 22 8 17 18 -7 42 17 33 32 -4 6 3 15 14 21 11 6 20 7 20 3 0 -4 11 9
26 30 14 21 29 35 35 32 5 -4 9 -1 9 4 0 16 16 13 34 -4z m-9159 -15 c-3 -5 2
-10 13 -10 20 0 72 -45 72 -62 0 -11 25 -38 35 -38 3 0 31 -25 62 -55 31 -30
60 -55 64 -55 5 0 7 22 6 49 -2 38 -5 47 -17 43 -12 -4 -12 -2 -3 8 13 14 6
40 -16 57 -14 11 -14 14 -1 23 8 5 27 10 42 10 14 0 34 3 44 7 13 5 15 3 9 -7
-6 -9 -4 -11 4 -6 14 9 43 -23 34 -37 -3 -5 5 -7 18 -5 18 2 24 -2 24 -17 0
-14 7 -20 22 -21 41 -2 53 -22 51 -80 -1 -30 -6 -55 -10 -55 -4 -1 -12 -3 -18
-4 -5 -1 -20 -4 -32 -5 -22 -2 -22 -2 2 -10 25 -8 25 -8 -5 -11 -16 -1 -46 -1
-67 0 -20 1 -39 -3 -43 -8 -3 -6 -15 -11 -25 -11 -11 0 -24 -10 -31 -21 -8
-16 -13 -18 -19 -9 -6 9 -10 7 -15 -9 -10 -32 2 -57 47 -95 30 -26 38 -39 34
-54 -8 -24 9 -39 21 -19 12 21 48 37 106 48 29 6 64 12 78 15 25 5 27 3 25
-23 -2 -17 -6 -35 -10 -41 -4 -7 -7 -35 -7 -64 1 -85 1 -91 -11 -105 -11 -13
4 -18 45 -15 9 1 17 -5 17 -13 0 -9 -6 -12 -16 -8 -13 5 -14 0 -9 -31 6 -30 5
-35 -8 -30 -12 4 -14 1 -10 -15 4 -16 11 -20 27 -16 15 4 13 1 -7 -10 -32 -18
-57 -7 -57 26 0 23 -18 35 -33 20 -16 -16 -54 -14 -60 3 -6 14 -1 46 10 76 4
8 7 28 8 44 l3 28 -19 -28 c-10 -16 -19 -34 -19 -40 0 -6 -6 -17 -14 -23 -7
-6 -16 -24 -19 -40 -7 -33 -30 -45 -130 -65 -38 -8 -71 -16 -73 -18 -11 -12
30 -47 59 -50 27 -3 22 -5 -28 -15 -59 -11 -89 -8 -80 7 10 16 -7 40 -27 40
-18 0 -19 -2 -7 -17 13 -15 12 -15 -6 -6 -11 6 -51 25 -90 43 l-69 32 29 13
30 12 -28 8 c-16 4 -46 5 -67 2 -21 -3 -42 -2 -47 2 -4 4 -54 20 -110 36 -57
16 -103 32 -103 37 0 5 10 13 23 17 l22 9 -25 10 c-14 5 -28 8 -31 6 -4 -2
-15 6 -25 18 -11 12 -13 18 -6 14 7 -4 12 -2 12 4 0 7 7 10 15 6 9 -3 20 2 27
13 10 16 14 17 25 6 17 -18 16 -25 -3 -25 -8 0 -12 -5 -9 -10 10 -17 37 10 30
29 -4 9 -8 23 -10 32 -2 9 -13 36 -24 60 -12 23 -21 49 -21 56 0 7 -6 10 -15
7 -8 -4 -15 -13 -15 -20 0 -8 -7 -17 -15 -20 -21 -8 -19 -24 3 -24 14 -1 13
-4 -7 -20 -23 -20 -51 -27 -51 -12 0 4 -9 13 -20 20 -17 10 -20 10 -17 -5 1
-10 6 -23 10 -30 13 -21 -22 -30 -76 -21 -29 6 -57 14 -63 19 -6 5 -14 6 -17
2 -9 -9 -129 27 -147 45 -13 12 -8 13 40 7 86 -10 111 -16 104 -26 -3 -5 4 -9
16 -9 22 0 22 0 3 33 -11 17 -26 32 -34 32 -8 0 -16 11 -17 25 -2 14 -8 29
-13 35 -5 5 -9 17 -9 27 0 11 -5 15 -15 12 -8 -4 -15 -1 -15 5 0 21 48 12 56
-11 11 -35 74 -129 83 -123 10 6 23 -23 16 -35 -3 -5 1 -7 7 -6 32 4 23 52
-12 68 -37 16 -39 27 -3 20 l27 -5 -18 29 c-10 16 -28 39 -38 51 -22 24 -17
43 12 43 10 0 21 4 24 9 3 5 21 12 40 15 19 4 37 13 40 22 6 16 135 78 144 69
3 -3 7 -11 9 -18 13 -62 26 -103 34 -114 6 -6 8 -21 4 -32 -4 -13 0 -23 12
-30 10 -5 14 -13 10 -17 -5 -5 -11 -4 -15 1 -10 15 -40 14 -46 0 -2 -7 3 -21
12 -31 10 -11 23 -32 30 -47 6 -15 16 -26 21 -23 16 10 19 -18 4 -35 -11 -13
-12 -25 -4 -50 5 -19 10 -26 10 -16 1 11 9 17 24 17 29 0 40 -9 28 -24 -13
-17 -20 -56 -11 -56 5 0 12 5 15 11 4 6 13 8 21 5 8 -3 15 1 15 9 1 8 2 21 3
28 0 6 8 12 16 12 8 0 14 -6 12 -14 -1 -7 2 -19 8 -26 8 -10 8 -19 0 -34 -10
-19 -8 -21 17 -21 21 0 33 8 46 31 9 17 17 39 17 50 0 13 6 19 17 17 10 -2 19
5 21 16 2 11 0 16 -7 12 -16 -10 -14 5 3 18 8 6 17 28 20 49 6 32 4 37 -13 37
-16 0 -21 -9 -27 -46 -5 -35 -12 -47 -29 -54 -13 -5 -26 -19 -30 -30 -5 -17
-10 -19 -18 -11 -9 9 -8 14 3 21 10 7 12 12 4 18 -6 4 -10 17 -9 30 1 12 -4
22 -12 22 -7 0 -13 10 -13 22 0 12 -3 18 -7 15 -3 -4 -12 1 -19 11 -11 14 -15
15 -23 3 -5 -8 -7 -20 -5 -26 3 -7 -5 -15 -18 -18 -29 -8 -44 15 -18 27 13 6
18 15 15 26 -6 18 19 35 36 24 5 -3 9 17 9 45 0 41 4 51 20 56 11 3 23 18 26
33 4 15 9 31 11 35 8 14 53 -35 53 -57 0 -16 2 -18 9 -7 5 8 7 20 4 28 -3 7 2
13 10 13 20 0 31 -16 17 -25 -18 -11 -11 -27 9 -20 11 3 22 1 26 -5 3 -5 15
-10 26 -10 10 0 19 -4 19 -10 0 -18 22 -10 47 16 15 17 19 24 9 21 -15 -6 -21
8 -17 41 1 6 -3 12 -8 12 -6 0 -10 15 -9 33 0 17 -7 54 -16 80 -9 26 -16 57
-16 68 0 11 -10 34 -22 50 l-23 31 24 19 c24 20 57 26 46 9z m4017 -255 c-5
-29 12 -34 27 -7 8 13 10 3 11 -42 0 -52 -3 -62 -28 -86 -16 -15 -32 -34 -35
-43 -3 -9 -18 -19 -32 -23 -14 -3 -25 -12 -25 -20 0 -8 -3 -14 -7 -14 -5 0
-16 -14 -26 -32 -12 -22 -21 -28 -28 -21 -14 14 10 58 31 58 10 0 14 8 12 28
-2 16 2 27 9 27 7 0 10 3 7 6 -4 3 -16 1 -27 -6 -13 -7 -21 -7 -21 -1 0 11 10
21 45 46 16 12 17 16 7 23 -11 7 -5 21 27 63 23 30 41 57 41 62 0 4 4 7 9 7 4
0 6 -11 3 -25z m-1977 -5 c-3 -5 0 -10 7 -10 9 -1 7 -5 -4 -14 -10 -7 -18 -17
-18 -22 0 -4 5 -3 12 4 16 16 31 15 22 0 -4 -8 1 -6 12 2 10 9 31 17 47 19 23
2 27 -1 27 -25 0 -24 -3 -26 -30 -21 -22 5 -35 1 -47 -12 -10 -10 -37 -22 -60
-26 -28 -4 -43 -12 -43 -21 0 -9 -4 -13 -9 -9 -6 3 -26 -4 -46 -15 -43 -24
-45 -24 -45 -5 0 8 12 21 28 29 15 8 51 42 80 75 30 34 58 61 63 61 6 0 7 -4
4 -10z m5059 -37 c23 -16 50 -36 61 -46 11 -10 34 -26 50 -34 17 -9 33 -21 37
-28 10 -16 59 -29 67 -18 3 5 21 19 39 32 30 21 32 21 38 4 3 -10 10 -26 15
-35 5 -10 9 -25 9 -34 0 -10 5 -14 15 -10 10 3 15 -1 16 -12 2 -56 43 -221 65
-264 22 -43 75 -87 104 -87 38 1 54 10 108 61 27 26 67 55 88 64 22 9 52 23
69 30 21 9 33 10 42 2 10 -8 13 -6 13 6 0 30 48 20 65 -14 10 -18 11 -30 5
-30 -6 0 0 -15 13 -32 14 -18 41 -66 61 -106 20 -40 51 -89 70 -110 18 -20 36
-49 40 -64 3 -16 13 -28 21 -28 8 0 15 -4 15 -10 0 -5 -9 -10 -19 -10 -15 0
-21 10 -26 40 -4 22 -11 38 -15 35 -5 -3 -14 3 -20 12 -9 14 -10 10 -5 -22 3
-22 8 -48 11 -57 4 -13 0 -18 -15 -18 -22 0 -41 27 -41 58 0 22 -33 53 -74 71
-27 11 -31 10 -53 -16 -13 -15 -27 -37 -32 -48 -9 -22 -6 -148 4 -168 4 -6 0
-4 -8 6 -9 10 -18 41 -22 68 -7 53 -20 60 -69 37 -21 -9 -29 -8 -43 4 -10 9
-27 18 -38 20 -12 2 -21 13 -23 26 -4 26 -11 28 -27 5 -11 -15 -15 -15 -43 8
-17 13 -31 30 -31 37 -1 6 -5 13 -11 13 -5 1 -15 2 -21 3 -13 1 -38 45 -39 67
0 9 -7 22 -15 29 -13 11 -15 8 -15 -14 0 -15 4 -36 10 -46 5 -10 10 -41 11
-69 1 -28 5 -51 9 -51 12 0 19 -51 11 -74 -7 -17 -8 -17 -14 -3 -4 10 -11 17
-17 17 -9 0 5 -40 31 -92 5 -10 7 -18 5 -18 -2 0 -11 -3 -19 -6 -12 -4 -15 1
-11 25 4 25 2 30 -10 25 -15 -6 -22 11 -17 39 0 4 -4 7 -9 7 -6 0 -10 -8 -10
-18 0 -14 -8 -19 -31 -20 -35 -1 -35 17 -1 33 24 11 31 31 8 22 -11 -4 -16 3
-18 26 -2 24 -8 32 -21 30 -14 -1 -18 4 -14 19 3 11 0 21 -9 25 -8 3 -14 18
-14 33 0 33 -29 65 -31 34 -1 -11 -1 -27 0 -36 1 -10 -4 -18 -13 -18 -8 0 -22
-7 -30 -16 -9 -9 -24 -17 -34 -18 -9 -2 -17 -12 -17 -22 -1 -10 -4 -24 -8 -30
-4 -7 0 -17 8 -24 9 -8 12 -17 6 -24 -12 -16 -20 -66 -10 -71 4 -3 10 -1 14 5
3 5 10 10 16 10 15 0 11 -22 -8 -43 -10 -11 -13 -18 -8 -15 16 8 44 -28 34
-43 -13 -21 -11 -29 6 -23 8 4 15 14 15 24 0 30 22 35 42 10 l19 -23 6 21 c3
12 9 19 14 16 5 -3 9 0 9 7 0 7 3 10 6 6 3 -3 20 7 38 24 l31 29 3 -26 c2 -14
-1 -31 -6 -37 -5 -8 -4 -21 4 -37 9 -15 14 -19 14 -9 0 16 51 59 70 59 6 0 23
11 38 25 15 14 33 23 40 20 8 -3 22 -5 33 -5 14 0 21 -9 25 -30 7 -34 28 -55
48 -47 26 10 60 -123 35 -139 -5 -3 -13 5 -18 18 -6 13 -31 43 -56 68 -38 37
-48 42 -55 30 -9 -13 -11 -13 -20 0 -5 8 -10 22 -10 30 0 12 -2 12 -8 2 -10
-14 -42 -6 -42 12 0 7 -3 7 -8 1 -4 -6 -24 -25 -45 -43 -37 -31 -40 -32 -52
-15 -12 16 -13 13 -8 -24 5 -41 -6 -58 -22 -33 -3 6 -14 10 -23 10 -10 0 -32
14 -51 30 -32 30 -51 32 -51 5 0 -7 -7 -15 -15 -19 -15 -5 -17 1 -19 52 -1 9
-9 23 -19 30 -15 12 -20 10 -37 -10 -17 -20 -19 -20 -20 -5 0 10 -22 46 -48
80 -63 81 -77 106 -64 119 7 7 16 -1 28 -23 17 -33 18 -34 24 -10 6 28 30 41
30 17 0 -9 -5 -16 -11 -16 -5 0 -8 -4 -5 -9 3 -4 17 -6 32 -3 24 4 25 3 15
-17 -14 -25 -5 -27 21 -4 24 22 23 33 -4 33 -16 0 -19 3 -11 11 8 8 7 19 -4
40 -15 30 -27 40 -17 14 8 -20 -6 -19 -23 3 -14 16 -14 16 -9 0 7 -22 -7 -23
-24 -3 -7 8 -19 15 -26 15 -8 0 -13 6 -12 13 2 6 -3 11 -11 9 -10 -2 -12 4 -7
20 3 13 6 31 6 42 0 15 3 16 14 7 12 -10 14 -6 13 23 -1 22 -4 31 -9 23 -9
-14 -10 -13 -13 33 -2 19 -6 43 -10 53 -4 10 -3 17 4 17 7 0 11 22 11 55 0 49
3 57 25 67 14 6 25 14 25 18 0 4 -15 48 -33 97 -30 80 -32 90 -15 85 10 -2 18
-9 18 -15 0 -6 3 -8 6 -4 4 3 22 0 40 -8 19 -8 34 -12 34 -9 0 21 -50 68 -91
85 -27 12 -49 27 -49 34 0 11 -15 29 -69 79 -46 43 22 50 83 9z m432 11 c-6
-15 -4 -15 18 0 23 14 26 14 40 0 20 -20 20 -22 -1 -20 -12 0 -19 -7 -21 -21
-4 -26 13 -31 22 -8 3 8 10 15 16 15 16 0 12 -21 -6 -35 -16 -11 -15 -16 6
-59 13 -25 26 -42 29 -38 8 11 44 24 39 15 -3 -5 -10 -23 -17 -40 -13 -33 -34
-43 -46 -23 -4 6 -21 17 -40 24 -44 19 -74 84 -70 152 3 58 1 54 21 54 11 0
14 -5 10 -16z m456 -86 c-2 -12 3 -15 18 -11 11 3 20 0 20 -6 0 -6 -7 -11 -15
-11 -7 0 -18 -6 -22 -13 -18 -28 -149 -127 -161 -122 -10 3 -12 0 -8 -10 7
-20 -29 -38 -64 -30 -30 7 -50 45 -24 45 19 0 30 9 125 103 66 65 84 78 107
75 19 -2 26 -8 24 -20z m-9105 -488 c24 -48 19 -52 -67 -48 -57 2 -80 0 -80
-9 0 -19 20 -26 35 -13 11 9 18 10 29 1 9 -8 21 -8 40 -1 27 10 32 5 17 -19
-5 -7 -14 -10 -21 -6 -9 5 -10 2 -6 -13 5 -13 -2 -30 -20 -51 -27 -32 -61 -43
-51 -16 8 19 -10 29 -50 27 -23 -2 -33 2 -33 12 0 7 -7 16 -15 20 -8 3 -12 12
-9 21 3 8 10 13 14 10 4 -3 14 2 21 11 10 13 10 17 -1 24 -10 6 -8 11 9 21 11
8 21 19 21 26 0 22 34 32 95 30 52 -2 61 -6 72 -27z m10271 -15 c46 0 57 -3
60 -17 2 -13 -3 -18 -17 -18 -11 0 -23 -4 -26 -10 -4 -6 -13 -5 -26 3 -15 9
-21 9 -27 0 -4 -6 -20 -17 -36 -23 -24 -9 -32 -8 -50 9 -14 13 -36 19 -70 20
-26 0 -57 3 -67 6 -27 9 -24 35 4 35 13 0 28 5 35 12 9 9 15 8 25 -6 12 -16
17 -17 36 -6 17 8 26 9 34 1 6 -6 16 -11 22 -11 5 0 2 5 -8 11 -14 8 -15 14
-7 24 9 11 16 10 37 -8 19 -17 37 -22 81 -22z m-11039 16 c11 -7 9 -11 -8 -21
-15 -8 -19 -15 -13 -23 11 -15 3 -87 -10 -87 -5 0 -6 -9 -3 -20 7 -21 -27 -75
-39 -63 -3 3 -7 0 -7 -8 -1 -8 -2 -21 -3 -29 -1 -20 -36 -26 -36 -7 0 9 5 17
10 19 7 2 1 26 -15 61 -14 32 -29 56 -34 52 -5 -3 -12 1 -14 7 -4 9 -6 9 -6 1
-1 -6 5 -18 12 -25 6 -7 13 -37 14 -65 l3 -53 -50 0 c-28 0 -50 5 -50 10 0 6
-20 32 -45 59 -25 26 -42 50 -39 53 11 11 72 -15 67 -28 -3 -7 9 -28 27 -46
l32 -33 -7 57 c-3 31 -12 80 -19 109 -8 29 -12 59 -9 66 8 20 33 15 33 -6 0
-11 5 -23 10 -26 6 -3 10 -17 10 -31 0 -17 5 -24 19 -24 27 0 36 18 19 38 -7
9 -19 27 -25 39 -12 21 -10 22 30 26 83 7 132 7 146 -2z m11551 -107 c0 -8
-81 -44 -89 -39 -5 2 -14 -2 -21 -10 -7 -8 -19 -15 -26 -15 -8 0 -14 -4 -14
-10 0 -5 7 -10 16 -10 13 0 14 -3 5 -14 -9 -11 -7 -15 10 -19 13 -4 26 1 37
14 11 12 29 19 54 19 20 0 40 5 43 10 3 6 0 10 -9 10 -21 0 -25 23 -7 37 24
18 31 16 31 -11 0 -13 6 -27 13 -29 9 -4 9 -8 -1 -15 -11 -7 -11 -10 2 -15 14
-6 13 -10 -5 -41 -11 -19 -26 -37 -34 -40 -8 -3 -12 -12 -9 -21 4 -10 0 -15
-15 -15 -14 0 -21 -6 -21 -20 0 -11 -7 -20 -15 -20 -8 0 -15 7 -15 15 0 12 -8
10 -37 -9 -39 -27 -55 -27 -33 0 12 13 11 17 0 24 -9 6 -20 4 -30 -4 -30 -25
-102 -46 -117 -34 -11 9 -11 14 4 31 13 15 15 21 6 24 -21 7 -15 22 6 16 10
-3 22 0 25 6 12 19 36 12 36 -10 0 -11 4 -17 11 -14 5 4 8 12 6 18 -6 18 19
37 50 38 l28 1 -30 7 c-16 4 -36 3 -42 -2 -8 -6 -18 -5 -27 2 -7 6 -32 12 -55
13 -41 1 -60 18 -20 18 16 0 19 4 15 17 -9 21 8 31 41 25 l27 -5 -27 -21 -26
-21 44 -1 c36 -1 44 3 49 20 14 51 -10 81 -55 71 -23 -5 -29 -3 -29 10 0 13 9
15 45 14 24 -2 46 -8 49 -15 4 -10 13 -10 37 -4 17 5 35 7 39 5 4 -3 13 1 19
9 10 12 61 20 61 10z m-3085 -64 c3 -5 -1 -22 -9 -37 -8 -16 -12 -41 -9 -56 4
-19 -1 -34 -13 -48 -15 -17 -16 -24 -6 -39 18 -29 15 -50 -10 -70 -22 -18 -22
-20 -6 -36 16 -16 17 -16 24 9 8 33 19 34 35 5 11 -21 21 -34 47 -63 6 -7 12
-18 12 -24 0 -24 -23 -20 -56 8 -19 17 -44 31 -54 31 -13 0 -20 7 -20 20 0 11
-5 20 -11 20 -6 0 -9 -7 -5 -15 3 -9 0 -15 -9 -15 -18 0 -18 2 -3 35 6 14 17
25 25 25 21 0 16 47 -6 53 -15 3 -18 11 -14 27 3 12 12 24 19 27 9 3 12 14 8
29 -4 13 -1 30 5 37 10 13 18 44 20 75 1 14 27 16 36 2z m2412 -87 c-3 -5 15
-8 40 -9 26 0 49 -7 55 -15 7 -11 11 -11 15 -1 2 6 9 9 14 6 6 -3 5 -11 -2
-20 -8 -10 -15 -11 -24 -4 -14 12 -115 -15 -115 -31 0 -6 9 -7 22 -4 17 6 20
4 15 -9 -5 -13 0 -16 27 -16 21 0 33 5 33 14 0 8 -8 11 -21 8 -12 -3 -17 -1
-13 3 8 9 15 10 124 19 60 6 94 -7 58 -20 -9 -4 -21 -17 -26 -30 -8 -23 -29
-34 -29 -15 0 12 -36 20 -47 11 -14 -14 -146 -15 -151 -2 -2 7 -12 12 -22 12
-10 0 -20 6 -23 14 -3 8 -21 13 -49 13 -55 1 -73 -10 -29 -17 33 -5 34 -6 18
-22 -10 -9 -13 -19 -8 -22 5 -4 11 -2 13 4 2 5 14 3 28 -5 14 -8 33 -18 43
-21 9 -3 17 -15 17 -25 0 -13 7 -19 21 -19 18 0 19 2 9 15 -15 19 -7 30 16 21
9 -3 14 -12 10 -21 -9 -25 24 -17 46 11 11 14 23 22 26 19 4 -3 1 -10 -6 -14
-7 -4 -14 -18 -15 -30 -2 -29 -36 -37 -111 -24 -34 5 -72 6 -86 2 l-25 -8 23
-7 c27 -8 23 -31 -4 -26 -10 2 -30 5 -44 7 -14 2 -27 4 -30 5 -3 1 -16 1 -30
0 -21 -2 -22 0 -11 14 18 22 14 24 -42 27 -45 3 -48 4 -42 26 4 18 1 23 -13
23 -10 0 -23 -5 -30 -12 -9 -9 -13 -7 -18 5 -3 9 -15 17 -25 17 -30 0 -24 38
6 46 14 3 25 10 25 16 0 5 5 6 10 3 6 -4 7 -11 4 -17 -5 -7 2 -9 20 -6 16 3
26 1 26 -7 0 -8 9 -10 25 -7 18 3 30 -2 44 -19 26 -33 35 -19 17 25 -14 34
-14 37 1 43 9 4 21 -1 28 -10 18 -25 24 -21 22 16 -2 27 1 31 18 29 11 -2 22
-8 23 -13 4 -11 52 -12 52 -1 0 4 18 7 40 7 39 -1 40 0 35 27 -5 22 -3 28 10
28 9 0 14 -3 12 -7z"/>
<path d="M4799 5003 c-1 -5 0 -16 1 -26 1 -10 -4 -16 -12 -15 -8 2 -13 -7 -13
-24 0 -14 -3 -30 -7 -34 -5 -4 -8 -19 -8 -34 0 -14 -6 -32 -12 -38 -10 -10 7
-12 80 -11 92 1 105 6 77 29 -8 7 -15 21 -15 32 0 10 -7 21 -15 24 -8 4 -13
10 -10 14 9 14 -7 41 -21 36 -8 -3 -11 0 -7 10 3 8 0 21 -7 29 -13 16 -29 20
-31 8z"/>
<path d="M2710 4682 c-75 -15 11 -24 355 -34 398 -12 482 -11 504 3 11 7 -8 9
-62 5 -72 -5 -80 -4 -96 15 -16 20 -20 20 -79 9 -43 -9 -105 -11 -190 -6 -239
12 -397 15 -432 8z"/>
<path d="M7780 3780 c-92 -3 -147 -8 -135 -13 26 -11 567 -7 581 4 6 5 24 5
40 0 47 -13 207 -8 211 7 4 9 -54 12 -269 10 -150 -1 -343 -5 -428 -8z"/>
<path d="M13170 1701 c0 -5 6 -12 13 -14 6 -3 -7 -6 -31 -6 -39 -1 -43 -3 -37
-21 4 -11 2 -20 -4 -20 -6 0 -11 4 -11 10 0 5 -9 14 -20 20 -16 9 -20 8 -20
-5 0 -9 16 -22 38 -31 20 -8 46 -19 57 -24 11 -4 27 -9 35 -9 43 -3 71 -8 77
-14 7 -8 -14 -10 -65 -7 -28 1 -32 -1 -30 -21 3 -20 -2 -22 -58 -25 -35 -2
-76 3 -100 12 l-39 14 51 -2 c27 -1 56 2 62 6 7 4 20 2 28 -5 13 -10 17 -10
24 2 7 11 1 16 -27 22 -20 4 -45 15 -55 24 -10 9 -21 13 -25 9 -4 -4 -1 -11 7
-16 12 -8 11 -10 -5 -10 -10 0 -29 12 -41 28 -12 15 -26 24 -30 20 -4 -4 -1
-14 6 -23 7 -9 10 -18 7 -21 -6 -7 -13 -4 -57 21 -54 31 -29 -9 51 -83 154
-142 189 -177 189 -189 0 -7 5 -13 11 -13 5 0 29 -21 52 -47 70 -78 105 -113
112 -113 4 0 1 7 -6 17 -11 13 -11 17 -1 20 17 6 17 223 0 223 -9 0 -9 3 0 12
7 7 12 44 12 98 l0 86 -45 2 c-60 2 -81 15 -88 52 -4 18 -13 30 -22 30 -8 0
-15 -4 -15 -9z"/>
<path d="M4585 1682 c-23 -12 -64 -17 -177 -20 -131 -4 -146 -6 -141 -21 5
-13 3 -13 -15 3 -15 13 -33 17 -67 14 -33 -2 -44 0 -40 9 3 9 -7 13 -30 13
-19 0 -35 -4 -35 -10 0 -6 -39 -10 -97 -10 -102 0 -146 -7 -138 -20 10 -16 16
-80 7 -80 -5 0 -14 12 -20 26 -12 25 -36 25 -26 0 3 -8 1 -17 -5 -21 -6 -3
-11 1 -11 9 0 9 -5 16 -11 16 -6 0 -9 7 -5 15 4 11 -1 15 -19 15 -30 0 -53
-36 -35 -54 9 -8 14 -8 17 2 3 6 9 12 14 12 18 0 8 -29 -21 -60 -16 -18 -30
-38 -30 -44 0 -7 -7 -21 -15 -32 -8 -10 -15 -31 -15 -46 0 -18 -5 -28 -15 -28
-9 0 -15 -9 -15 -21 0 -16 -4 -19 -17 -15 -10 4 -14 4 -10 0 4 -4 2 -13 -4
-21 -9 -9 -8 -13 0 -13 6 0 11 -11 11 -25 0 -14 4 -25 9 -25 17 0 61 46 61 63
0 9 5 19 10 22 6 4 17 21 25 38 15 32 15 32 10 -23 -6 -54 -5 -54 10 -27 9 15
20 27 25 27 13 0 38 55 52 116 7 30 18 54 25 54 16 0 33 -63 20 -71 -5 -4 -7
-23 -3 -42 5 -25 3 -38 -7 -44 -22 -14 -49 -117 -46 -182 1 -36 -2 -66 -10
-75 -8 -9 -9 -16 -2 -21 15 -9 49 12 56 35 6 20 25 28 25 10 0 -8 -44 -110
-57 -132 -2 -5 0 -8 5 -8 5 0 14 10 20 23 6 13 11 16 11 7 1 -22 -23 -65 -37
-66 -25 -3 -27 -5 -13 -13 12 -8 12 -14 1 -43 -14 -36 -144 -301 -173 -352
-12 -21 -16 -44 -12 -73 4 -35 2 -43 -11 -43 -10 0 -14 -6 -11 -14 6 -15 -11
-36 -29 -36 -7 0 -9 10 -6 25 2 15 0 25 -7 25 -6 0 -11 -13 -11 -30 0 -16 5
-30 10 -30 13 0 13 -27 0 -35 -6 -4 -17 -2 -24 4 -7 6 -16 8 -19 4 -4 -3 1
-11 10 -18 19 -14 10 -35 -16 -35 -28 0 -31 10 -15 48 16 39 12 51 -11 32 -13
-11 -15 -9 -15 14 0 17 4 25 11 20 7 -4 10 1 7 12 -2 11 -12 19 -23 19 -18 0
-20 -6 -18 -54 2 -30 7 -59 13 -65 6 -6 5 -15 -6 -27 -12 -13 -13 -19 -3 -25
7 -4 15 -2 17 4 5 17 22 15 22 -2 0 -8 -7 -16 -15 -20 -8 -3 -15 -13 -15 -23
-1 -25 -30 -60 -60 -71 l-25 -10 29 -7 c22 -6 31 -4 38 10 11 19 27 35 77 77
19 17 30 32 25 39 -4 7 -3 9 3 6 6 -4 23 10 39 30 30 40 43 61 116 202 44 82
76 120 91 105 6 -6 -46 -107 -70 -135 -15 -18 -18 -43 -3 -34 13 8 56 75 82
125 11 22 17 28 18 17 0 -10 -7 -32 -16 -48 -34 -67 -4 -32 72 81 51 77 85
120 96 120 21 0 23 11 6 28 -8 8 -8 15 0 25 9 10 8 17 -1 26 -9 10 -9 11 3 6
16 -6 40 -50 40 -72 0 -15 40 -38 59 -34 7 1 10 -2 7 -7 -3 -6 1 -27 10 -47 8
-21 13 -48 10 -61 -4 -15 -2 -24 5 -24 8 0 10 -13 5 -39 -10 -65 30 -207 57
-198 6 2 18 25 27 51 8 26 19 44 22 40 9 -8 -1 -158 -11 -162 -13 -5 1 -72 15
-72 11 0 14 18 14 80 0 75 10 101 24 64 11 -28 7 -64 -19 -173 -14 -58 -27
-116 -30 -128 -6 -28 12 -30 31 -6 13 17 13 17 14 1 0 -13 8 -18 29 -18 27 0
31 4 39 43 12 58 3 66 -30 27 -22 -27 -28 -30 -28 -15 0 10 9 29 21 41 17 18
19 26 10 42 -17 31 -14 39 17 45 28 6 52 43 52 83 0 35 21 84 36 84 19 0 18 9
-10 55 -35 58 -52 94 -65 144 -7 23 -15 50 -17 60 -3 9 13 -18 34 -59 98 -189
105 -200 123 -200 11 0 19 -7 19 -16 0 -10 -6 -14 -14 -11 -19 8 19 -58 44
-76 10 -7 20 -21 22 -32 2 -11 10 -19 17 -17 7 1 10 -2 6 -8 -3 -5 14 -37 39
-69 52 -67 57 -80 22 -57 -37 24 -41 2 -6 -33 l30 -30 155 0 c162 -1 173 2
139 40 -9 10 -14 25 -10 34 5 15 8 15 28 1 20 -14 24 -14 40 1 17 15 20 15 44
-8 14 -13 27 -23 30 -21 15 9 14 -1 -1 -12 -14 -10 -25 -11 -42 -3 -27 12 -36
6 -27 -17 5 -12 20 -16 65 -16 54 0 59 2 65 25 7 27 23 32 43 12 10 -8 12 -8
7 0 -15 27 16 22 40 -6 l26 -31 384 0 c235 0 383 4 379 9 -11 18 16 22 47 7
43 -22 88 -21 88 2 1 16 1 16 14 -1 17 -22 49 -23 44 0 -2 11 -18 20 -46 26
-40 8 -50 16 -35 30 3 4 14 0 24 -9 15 -13 23 -14 53 -4 40 13 44 24 19 53
-18 21 -18 21 28 2 9 -3 23 1 32 9 21 21 34 20 40 -4 6 -22 37 -28 37 -7 -1
20 -49 69 -66 65 -8 -2 -14 -7 -14 -12 3 -16 -31 -29 -43 -17 -8 8 -6 15 9 26
19 14 18 14 -3 15 -14 0 -23 6 -23 15 0 17 16 20 25 5 3 -5 19 -7 35 -4 29 6
60 -12 60 -34 0 -5 14 -15 30 -22 27 -11 29 -14 14 -25 -19 -13 -11 -35 12
-35 8 0 12 -4 9 -10 -3 -5 -16 -10 -29 -10 -30 0 -39 -10 -24 -27 10 -12 7
-13 -18 -7 -29 7 -46 22 -38 35 2 4 -3 12 -12 19 -11 10 -18 10 -26 2 -9 -9
-9 -12 0 -12 16 0 16 -40 0 -40 -7 -1 5 -10 27 -21 38 -19 61 -19 707 -19
l668 1 22 29 c26 36 43 43 68 27 27 -16 25 -29 -2 -26 -24 3 -48 -7 -48 -20 0
-4 160 -8 356 -10 266 -2 359 1 364 9 5 8 13 9 26 2 11 -5 52 -10 91 -11 l73
-1 -12 25 c-12 28 -28 33 -28 10 0 -8 -3 -15 -7 -15 -13 0 -63 47 -63 59 0 6
-7 11 -15 11 -18 0 -11 11 35 57 21 21 26 22 35 9 13 -18 65 -33 65 -18 0 5
25 12 56 15 30 3 62 11 69 17 18 15 61 8 57 -9 -1 -7 3 -19 9 -27 8 -10 8 -14
0 -14 -6 0 -11 -7 -11 -15 0 -20 -34 -37 -47 -24 -6 6 -23 12 -39 13 -20 3
-28 9 -26 19 3 20 -10 28 -28 16 -12 -7 -9 -15 19 -39 l33 -30 -23 -9 c-13 -5
-26 -7 -29 -6 -3 2 -11 -3 -18 -11 -10 -11 -8 -15 9 -25 17 -9 20 -8 14 1 -6
10 -1 11 19 6 14 -3 37 -9 50 -12 17 -4 28 1 44 20 24 31 48 36 32 7 -5 -11
-10 -22 -10 -25 0 -3 413 -6 919 -6 l918 0 -4 24 c-6 30 14 43 35 23 14 -15
18 -14 44 4 15 11 29 17 29 12 1 -4 2 -12 4 -18 1 -5 3 -14 3 -19 1 -5 13 1
26 13 14 13 29 20 34 17 13 -8 36 20 27 34 -3 5 -15 10 -25 10 -14 0 -18 5
-13 16 3 9 0 20 -8 25 -11 6 -11 11 -1 21 9 9 15 8 25 -6 12 -16 16 -14 52 28
39 46 59 59 49 31 -4 -10 0 -15 11 -15 12 0 15 6 10 23 -5 19 -3 18 19 -8 l26
-30 -23 -21 c-12 -11 -41 -42 -65 -68 -24 -25 -46 -45 -50 -42 -4 2 -15 -8
-24 -24 l-16 -29 195 -1 c167 0 197 2 207 15 8 11 18 14 31 9 18 -7 18 -8 -1
-15 -10 -4 160 -8 380 -8 l399 -1 23 25 c24 26 54 25 54 -1 0 -16 16 -19 25
-4 10 16 25 12 19 -5 -5 -13 9 -15 89 -15 l95 0 -11 30 c-6 16 -16 30 -22 30
-6 0 -11 16 -12 36 -1 27 2 34 14 30 8 -3 17 -6 19 -6 2 0 4 -9 4 -20 0 -26
15 -26 33 1 13 18 16 19 24 5 7 -13 29 -17 99 -20 82 -2 95 -6 170 -44 74 -39
87 -42 158 -42 66 0 77 2 67 14 -6 7 -29 16 -52 20 -44 7 -79 24 -92 44 -4 6
-16 12 -27 12 -10 0 -30 14 -44 31 -14 17 -30 28 -36 24 -16 -10 -70 24 -70
44 0 10 -10 25 -22 34 -28 18 -15 36 12 19 11 -7 25 -12 32 -12 7 0 39 -18 72
-40 32 -22 62 -40 67 -40 4 0 20 -11 35 -24 55 -49 66 -58 92 -69 15 -7 40
-21 55 -31 40 -27 237 -37 237 -13 0 10 -11 19 -27 23 -45 9 -53 13 -53 23 0
6 11 6 28 0 15 -4 39 -11 55 -14 15 -3 27 -12 27 -19 0 -21 23 -26 111 -26
l80 0 -3 92 -3 91 -35 20 c-19 12 -69 33 -110 48 -159 57 -215 79 -206 79 18
0 -10 20 -34 25 -12 2 -31 11 -40 20 -16 15 -18 14 -23 -6 -5 -17 -9 -20 -19
-12 -7 6 -32 13 -56 17 -24 3 -54 14 -67 22 -32 21 -89 35 -145 36 -71 1 -80
-1 -78 -14 3 -12 -1 -13 -36 -10 -7 1 -16 11 -19 22 -7 25 31 50 78 50 38 0
40 3 35 75 -1 22 -6 44 -11 50 -14 14 -11 35 6 35 25 0 28 61 6 130 -12 35
-21 70 -21 78 0 21 -55 107 -112 173 -26 31 -48 62 -48 68 0 19 -22 12 -27 -9
-7 -25 -45 -27 -97 -5 -46 19 -46 28 -1 19 29 -5 35 -3 35 10 0 11 -5 14 -12
10 -8 -5 -9 -2 -5 9 4 11 1 17 -8 17 -8 0 -15 4 -15 8 0 4 10 8 23 7 32 -1 67
-15 67 -26 0 -6 14 -15 30 -20 17 -6 30 -16 30 -22 0 -7 5 -4 11 5 13 23 69
23 124 1 37 -14 123 -19 134 -7 3 3 -1 9 -9 14 -8 5 -11 12 -7 16 4 4 12 3 18
-3 6 -6 18 -9 25 -6 8 3 14 0 14 -6 0 -6 -4 -11 -10 -11 -5 0 -7 -7 -4 -15 6
-16 47 -12 71 7 17 13 35 0 28 -20 -3 -11 3 -22 16 -31 19 -11 24 -10 41 7 18
18 18 20 3 36 -20 20 -13 20 25 1 29 -15 40 -35 20 -35 -6 0 -3 -12 7 -28 17
-26 17 -26 0 -13 -16 13 -20 13 -28 0 -6 -10 -3 -15 10 -17 25 -4 34 -42 16
-62 -19 -21 -19 -40 0 -40 8 0 15 -5 15 -11 0 -7 -10 -9 -24 -7 -14 3 -31 1
-38 -3 -21 -14 4 -43 43 -50 29 -5 30 -7 9 -9 -14 -1 -31 -2 -37 -1 -7 1 -13
-3 -13 -8 0 -26 126 8 145 40 5 6 22 8 46 4 46 -8 77 9 58 31 -9 11 -8 14 5
14 22 0 20 17 -4 30 -11 6 -20 17 -20 25 0 8 -7 15 -15 15 -9 0 -12 -6 -9 -15
4 -9 0 -15 -10 -15 -14 0 -21 22 -18 51 1 4 -8 5 -18 2 -13 -4 -20 0 -20 10 0
8 -7 20 -15 27 -38 31 21 30 125 -3 19 -6 74 -13 123 -16 l87 -6 0 38 c0 34
-2 37 -30 37 -33 0 -70 30 -70 58 -1 9 -9 31 -18 49 -15 28 -155 184 -257 287
-22 23 -78 85 -125 140 l-84 99 -110 -7 c-83 -5 -115 -11 -130 -24 -14 -12
-20 -14 -23 -5 -7 20 -33 15 -33 -7 0 -10 -8 -23 -17 -29 -13 -7 -14 -12 -6
-23 7 -8 8 -19 4 -27 -6 -9 -14 -4 -31 19 l-23 32 29 24 29 23 -56 1 c-61 0
-75 -6 -58 -27 9 -10 6 -13 -14 -13 -28 0 -44 15 -25 23 8 4 7 6 -3 6 -9 1
-19 -6 -23 -14 -3 -8 -12 -15 -21 -15 -19 0 -20 -19 0 -26 15 -6 21 -24 8 -24
-5 0 -16 7 -26 14 -14 11 -16 19 -7 40 l10 26 -73 -1 c-39 -1 -63 -3 -52 -6
44 -10 49 -13 36 -26 -9 -9 -14 -9 -21 3 -8 12 -12 13 -19 1 -6 -9 -14 -10
-27 -4 -11 5 -38 9 -61 8 -24 -1 -43 1 -43 5 0 6 -36 4 -118 -6 -29 -4 -40 -9
-35 -17 4 -7 8 -18 8 -26 0 -21 24 -25 31 -6 6 14 8 14 30 0 14 -9 29 -13 34
-10 6 3 17 2 27 -3 26 -15 -57 -25 -130 -16 -34 5 -74 7 -89 6 -16 -2 -28 2
-28 7 0 6 6 11 14 11 20 0 31 19 17 33 -7 7 -16 6 -29 -6 -11 -10 -22 -13 -28
-7 -5 5 -28 5 -57 -2 -42 -9 -51 -7 -69 9 -18 16 -39 18 -174 18 -132 0 -155
3 -166 17 -11 14 -21 15 -58 8 -25 -5 -82 -6 -127 -3 -87 6 -88 6 -84 -39 1
-10 -3 -18 -8 -18 -10 0 -15 13 -12 32 1 10 -85 22 -98 13 -17 -10 -13 -25 7
-26 9 0 4 -5 -13 -10 -16 -6 -60 -8 -97 -4 -39 3 -68 1 -68 -4 0 -5 -18 -7
-40 -4 -35 5 -40 4 -34 -12 6 -14 3 -16 -16 -10 -19 6 -22 4 -17 -9 11 -28
-20 -30 -65 -3 -25 14 -68 27 -103 31 -33 4 -105 18 -160 31 -116 27 -202 38
-300 39 -68 1 -70 1 -80 -29 -5 -16 -15 -33 -22 -38 -7 -4 -10 -13 -7 -21 9
-24 -18 -34 -53 -20 -31 13 -32 15 -21 46 6 18 20 41 32 51 l21 19 -25 -6
c-14 -3 -33 -6 -43 -6 -10 0 -15 -4 -12 -10 3 -5 -1 -10 -9 -10 -8 0 -18 5
-21 11 -4 5 -19 8 -33 5 -15 -3 -87 -7 -159 -8 -73 -2 -133 -6 -133 -9 0 -4 7
-12 15 -19 8 -7 15 -17 15 -22 0 -10 -32 5 -53 26 -19 19 -67 32 -67 18 0 -6
5 -12 12 -14 6 -2 12 -14 13 -25 1 -20 -2 -19 -49 13 -46 31 -57 34 -123 34
l-73 0 0 -32 c0 -17 -3 -28 -7 -25 -7 8 -33 -11 -33 -25 0 -6 7 -8 15 -4 24 9
18 -32 -10 -66 -14 -16 -25 -36 -25 -44 0 -19 -29 -18 -36 1 -4 8 -12 15 -19
15 -7 0 -18 7 -25 14 -6 8 -33 16 -58 18 -42 3 -47 6 -55 33 -5 17 -13 37 -18
45 -5 8 -14 27 -20 43 -8 19 -18 27 -36 27 -13 0 -21 -4 -18 -10 3 -6 1 -10
-5 -10 -6 0 -13 7 -16 15 -4 8 -14 15 -24 15 -10 0 -23 -7 -30 -15 -16 -19
-34 -19 -50 0 -11 14 -57 15 -354 13 -188 -1 -347 1 -354 6 -15 9 -252 8 -450
-3 l-133 -7 -26 -34 c-23 -31 -181 -189 -271 -271 -36 -33 -84 -43 -89 -19 -2
8 13 26 32 40 33 24 45 53 26 64 -5 3 -28 -10 -51 -29 -46 -39 -61 -42 -80
-20 -21 26 -31 16 -14 -12 10 -16 -19 9 -64 55 -82 81 -102 95 -102 68 0 -8
-3 -21 -6 -30 -3 -9 -1 -16 6 -16 13 0 30 -16 48 -48 16 -29 15 -35 -3 -28 -8
3 -15 0 -15 -7 0 -22 16 -38 33 -31 9 3 17 2 17 -4 0 -6 -5 -12 -11 -14 -7 -2
-3 -18 11 -43 32 -59 41 -73 92 -143 26 -34 53 -73 59 -85 7 -12 20 -28 31
-35 10 -7 18 -19 18 -27 0 -14 65 -75 81 -75 6 0 9 10 7 22 -3 24 20 35 50 23
15 -6 15 -8 1 -18 -19 -15 -32 -57 -15 -54 6 1 34 -43 62 -97 31 -61 65 -113
90 -135 21 -20 56 -57 77 -83 24 -30 50 -51 70 -56 23 -6 31 -14 30 -28 -1
-10 4 -22 10 -26 8 -5 7 -8 -5 -8 -9 0 -25 11 -36 24 -14 18 -25 23 -41 19
-18 -5 -22 -2 -19 13 2 14 -2 18 -15 16 -14 -3 -17 1 -13 16 5 14 -17 43 -91
120 -193 199 -238 247 -245 264 -4 9 -27 45 -51 80 -24 34 -47 73 -51 84 -4
12 -15 29 -26 39 -11 10 -20 22 -20 27 0 8 -52 89 -85 132 -13 18 -14 18 -20
-5 -5 -22 -53 -59 -76 -59 -10 0 -24 -10 -59 -42 -10 -9 -26 -18 -37 -21 -10
-3 -28 -8 -40 -12 -19 -5 -23 -2 -23 14 0 12 7 21 15 21 8 0 15 5 15 11 0 6
-8 8 -18 5 -25 -8 -67 37 -58 61 7 17 8 17 20 1 16 -22 38 -24 29 -2 -4 10 1
17 15 21 11 3 23 11 26 19 5 12 10 13 28 3 17 -9 24 -9 33 5 7 9 18 16 24 16
7 0 19 7 27 15 9 8 24 15 35 15 26 0 24 11 -11 55 -34 43 -34 41 -19 83 13 37
66 56 81 28 5 -9 15 -16 23 -16 7 0 16 -8 19 -18 4 -10 19 -31 36 -47 l29 -28
35 27 c62 47 74 97 16 62 -18 -10 -30 -13 -30 -6 0 6 7 13 15 16 8 4 15 13 15
21 0 8 -6 12 -12 9 -7 -3 -20 -9 -30 -12 -22 -8 -31 -46 -13 -57 8 -4 15 -15
15 -24 0 -11 -11 -6 -35 18 -38 37 -43 49 -21 49 7 0 20 8 27 17 15 18 16 18
-36 -3 -16 -7 -17 19 -2 44 5 7 3 12 -5 12 -7 1 -3 6 9 13 12 7 40 12 63 11
32 0 40 3 38 15 -2 9 -14 17 -28 18 -23 2 -23 2 -5 -6 36 -17 -80 -12 -158 5
-55 13 -82 14 -112 7 -22 -6 -60 -8 -84 -5 -30 3 -42 1 -37 -6 4 -6 -2 -17
-14 -24 -11 -7 -20 -19 -20 -26 0 -7 -6 -20 -14 -28 -8 -7 -16 -19 -19 -26 -2
-7 -7 -11 -10 -8 -4 3 0 30 8 60 8 30 15 61 15 68 0 14 -56 17 -65 2 -10 -16
-25 -12 -25 7 0 16 -1 16 -16 1 -16 -16 -42 -173 -30 -185 11 -11 16 2 18 53
1 42 38 133 38 95 0 -8 7 -22 15 -31 13 -14 14 -26 6 -61 -5 -23 -8 -46 -5
-50 2 -4 -8 -17 -23 -29 -23 -18 -28 -19 -35 -5 -13 22 -28 9 -28 -23 0 -21
-10 -33 -44 -54 -64 -41 -116 -34 -116 16 0 33 -34 124 -51 134 -13 9 -15 6
-11 -14 2 -13 8 -27 13 -30 5 -3 9 -34 9 -69 0 -48 4 -64 16 -69 9 -3 20 -4
25 -1 5 4 6 0 3 -7 -19 -49 -225 -94 -374 -82 -52 4 -111 7 -130 6 -67 -2
-100 7 -100 29 0 11 -6 32 -14 47 -8 16 -14 37 -13 47 1 11 -3 20 -9 20 -16 0
-72 69 -91 111 -9 22 -17 59 -17 84 -1 42 -3 45 -30 48 -23 3 -27 0 -22 -12
15 -39 18 -51 8 -37 -5 7 -14 11 -19 8 -6 -4 -8 3 -6 17 4 20 0 24 -32 30 -20
4 -39 6 -41 3 -2 -2 9 -34 25 -72 16 -38 27 -73 24 -78 -2 -4 0 -13 5 -20 6
-7 12 -28 13 -47 2 -19 11 -49 20 -66 10 -18 21 -54 25 -80 l7 -49 -22 19
c-14 12 -19 26 -15 38 3 10 2 17 -3 16 -4 -1 -19 4 -31 11 -20 11 -23 18 -18
49 3 23 3 30 -3 18 -6 -16 -10 -11 -19 26 -16 63 -15 68 11 69 20 1 20 1 -4
10 -28 11 -44 39 -55 102 -5 28 -11 37 -26 37 -14 0 -18 -5 -14 -17 13 -42 34
-158 30 -165 -3 -4 -12 -4 -21 -1 -11 4 -14 3 -9 -5 4 -7 13 -12 21 -12 15 0
25 -22 25 -55 0 -13 5 -27 10 -30 6 -3 10 -1 10 6 0 10 3 10 11 2 16 -16 51
-95 39 -88 -6 3 -10 2 -10 -2 0 -5 9 -14 21 -21 11 -7 18 -19 16 -26 -7 -17
12 -36 35 -36 12 0 15 -5 11 -15 -3 -9 -2 -15 3 -13 17 5 56 -24 50 -37 -2 -8
8 -32 24 -54 22 -29 26 -42 17 -49 -21 -16 -46 -21 -52 -12 -4 6 -13 10 -22
10 -11 0 -14 -6 -9 -23 5 -22 3 -23 -52 -22 -68 2 -90 -4 -70 -16 10 -6 9 -11
-7 -23 -14 -11 -32 -14 -62 -10 -29 4 -43 3 -43 -5 0 -6 5 -11 10 -11 6 0 10
-11 10 -25 0 -24 -1 -24 -34 12 -18 21 -36 48 -40 59 -4 12 -18 34 -31 50 -30
35 -28 46 13 59 35 10 37 16 22 46 -13 23 -7 24 26 3 13 -9 27 -14 31 -10 3 3
12 1 20 -6 19 -15 29 -2 13 17 -7 9 -20 13 -29 10 -8 -3 -12 -3 -8 1 4 4 2 13
-5 21 -6 7 -8 16 -4 20 3 3 6 1 6 -6 0 -7 5 -9 10 -6 8 5 7 11 -1 21 -8 10 -8
18 -1 27 15 18 -5 110 -40 187 -16 36 -26 52 -23 35 4 -16 8 -39 10 -50 1 -11
3 -20 4 -20 1 0 4 -17 6 -37 2 -21 0 -38 -5 -38 -6 0 -10 7 -10 15 0 8 -3 15
-8 15 -4 0 -16 21 -28 48 -65 150 -81 191 -76 189 10 -3 14 6 8 23 -2 8 -12
39 -21 68 -10 30 -22 52 -31 52 -18 0 -18 0 11 -58 34 -68 32 -75 -13 -63 -1
1 2 10 8 21 9 17 7 22 -13 29 -13 5 -30 23 -37 40 -13 32 -22 36 -97 44 -26 3
-44 1 -47 -7 -3 -7 -5 -7 -5 2 -1 16 -20 15 -56 -6z m4959 -314 c9 -14 3 -25
-29 -58 -22 -23 -70 -61 -107 -86 -37 -25 -78 -57 -92 -71 -18 -18 -31 -23
-43 -18 -16 6 -14 9 9 19 51 22 87 99 52 113 -24 9 -15 23 16 23 17 0 30 5 30
11 0 6 9 9 20 6 14 -4 23 3 35 26 8 16 15 36 15 44 0 21 80 13 94 -9z m76 -3
c7 -8 19 -15 27 -15 15 0 46 -22 126 -91 23 -20 56 -45 73 -55 57 -34 308
-206 366 -250 31 -24 65 -55 76 -69 11 -14 25 -25 31 -25 6 0 11 -7 11 -16 0
-13 -3 -13 -29 2 -26 15 -110 81 -163 129 -10 8 -24 15 -30 15 -7 0 -72 44
-143 98 -72 53 -147 105 -167 114 -50 23 -208 149 -208 165 0 17 15 16 30 -2z
m-2864 -242 c31 -20 25 -27 -10 -13 -21 8 -31 7 -42 -5 -9 -8 -20 -15 -25 -15
-5 0 -19 -10 -30 -21 -13 -13 -38 -23 -62 -25 -61 -5 -92 -24 -115 -68 -12
-23 -22 -46 -22 -52 0 -6 -7 -17 -15 -24 -8 -7 -24 -31 -35 -54 -22 -45 -42
-81 -77 -138 -13 -21 -23 -45 -23 -54 0 -9 -14 -37 -31 -62 l-31 -47 54 -50
c30 -28 88 -73 129 -100 40 -28 78 -53 83 -57 6 -4 8 -10 4 -13 -16 -17 -173
82 -268 169 -53 49 -110 87 -138 92 -10 2 -9 -4 3 -23 9 -13 14 -27 11 -30 -8
-8 -106 91 -106 106 0 15 22 14 40 -1 11 -10 11 -9 0 6 -8 11 -32 27 -53 36
-57 26 -203 154 -237 208 -16 26 -30 42 -30 37 0 -6 5 -16 12 -23 7 -7 8 -12
4 -12 -13 0 -86 61 -86 72 0 6 -20 28 -45 50 -25 22 -50 49 -56 61 -10 17 -9
19 7 13 11 -4 30 -10 44 -12 14 -3 42 -10 63 -15 21 -6 48 -9 60 -7 12 1 36
-3 52 -9 46 -18 133 -35 205 -40 48 -3 69 -9 81 -23 17 -19 17 -19 22 0 3 13
14 19 33 19 16 1 38 2 49 2 53 2 212 42 253 64 26 14 51 25 55 25 5 0 22 10
39 21 20 15 26 24 18 29 -7 4 34 5 90 3 71 -3 110 -9 126 -20z m894 -82 c0 -4
-23 -15 -51 -26 -32 -11 -54 -25 -57 -37 -2 -10 -9 -17 -16 -16 -21 4 -78 -33
-72 -47 3 -8 -1 -21 -9 -29 -22 -21 -19 -26 17 -26 62 0 12 -22 -62 -28 -63
-4 -70 -7 -65 -23 10 -30 -10 -22 -45 17 -30 35 -31 37 -13 56 30 34 95 73
158 97 33 13 78 31 100 40 81 36 115 43 115 22z m3885 -151 c3 -5 17 -10 31
-10 16 0 30 -10 42 -28 12 -19 24 -26 39 -24 23 3 98 -59 98 -81 0 -7 10 -11
21 -9 12 1 27 -4 34 -13 7 -8 19 -15 27 -15 9 0 31 -13 50 -30 18 -16 40 -30
47 -30 7 0 23 -11 36 -25 13 -14 31 -25 41 -25 9 0 28 -12 41 -27 13 -16 39
-37 58 -47 46 -25 80 -56 80 -73 0 -20 -14 -16 -40 12 -13 14 -30 25 -38 25
-18 0 -140 80 -166 108 -10 12 -31 24 -47 27 -16 4 -32 12 -36 18 -5 7 -34 25
-66 42 -32 16 -69 39 -82 51 -25 23 -58 38 -85 39 -21 1 -70 27 -70 37 0 13
12 10 32 -9 10 -9 21 -13 24 -10 10 10 -16 37 -35 37 -9 0 -27 12 -40 25 -13
14 -27 25 -32 25 -5 0 -9 5 -9 10 0 6 9 10 19 10 11 0 23 -4 26 -10z m-930
-230 c11 -12 33 -28 50 -36 18 -8 50 -33 73 -54 23 -22 45 -40 50 -40 5 0 19
-11 32 -25 13 -14 29 -25 35 -25 7 0 28 -12 48 -27 19 -16 49 -36 66 -45 17
-10 34 -25 38 -35 4 -10 11 -22 17 -26 29 -21 -54 9 -89 32 -154 101 -365 270
-365 292 0 16 27 9 45 -11z m-2115 -312 c0 -9 8 -21 18 -27 14 -8 15 -13 5
-29 -6 -11 -9 -29 -6 -41 4 -16 2 -20 -9 -16 -24 10 -61 -52 -55 -91 7 -41 -5
-43 -38 -8 -26 28 -45 25 -45 -6 0 -24 -31 -42 -51 -29 -11 8 -9 13 14 30 15
11 27 26 27 32 1 18 38 59 48 53 4 -2 14 -1 22 4 11 7 10 11 -5 26 -17 17 -16
18 3 25 15 6 19 14 15 31 -4 13 -12 26 -19 31 -24 14 -4 32 36 32 31 0 40 -3
40 -17z"/>
<path d="M2773 1656 c5 -13 1 -19 -12 -23 -25 -6 -41 -44 -41 -98 0 -24 -5
-56 -10 -71 -8 -19 -8 -30 0 -38 15 -15 12 -26 -6 -26 -12 0 -15 -6 -10 -25 4
-17 3 -23 -6 -20 -7 3 -20 0 -28 -5 -12 -8 -13 -13 -2 -30 12 -19 11 -20 -8
-8 -29 18 -36 49 -15 64 25 18 11 51 -26 59 -26 6 -36 1 -77 -39 l-47 -46 -68
4 c-71 5 -91 15 -166 85 -23 22 -31 36 -23 39 7 2 21 -3 31 -12 9 -9 32 -19
49 -22 18 -4 35 -11 38 -15 10 -16 24 -9 24 12 0 16 4 19 20 14 42 -13 15 46
-29 64 -36 15 -48 49 -19 53 19 3 19 4 -4 29 -23 25 -32 27 -144 33 -65 4
-132 10 -149 13 l-30 5 28 -26 c15 -14 40 -32 55 -40 33 -17 80 -66 63 -66 -6
0 -24 11 -39 25 -15 14 -34 25 -42 25 -8 0 -34 18 -58 40 -41 38 -46 40 -107
40 -39 0 -65 -4 -65 -11 0 -5 -10 -3 -22 5 -17 12 -49 16 -138 16 -112 0 -274
-13 -335 -27 l-30 -6 26 -7 c15 -4 87 -11 160 -16 l134 -8 -105 -12 c-58 -7
-127 -13 -155 -14 -27 0 -61 -7 -75 -15 -31 -18 -41 -18 -39 -2 5 39 -12 42
-201 36 -122 -4 -190 -3 -290 4 l-105 8 23 -19 c12 -11 22 -27 22 -36 0 -10
-14 -1 -39 24 -22 22 -49 40 -60 40 -25 0 -26 -6 -6 -26 8 -9 15 -21 14 -27 0
-8 -2 -8 -6 1 -2 6 -9 10 -14 6 -5 -3 -14 7 -19 22 -14 35 -22 26 -11 -12 14
-43 103 -251 134 -309 14 -27 35 -69 47 -92 16 -34 26 -43 47 -43 23 0 25 3
19 30 -3 19 -2 29 4 25 6 -3 10 -13 10 -21 0 -8 7 -29 16 -46 15 -29 18 -30
29 -15 14 20 25 12 25 -18 0 -26 18 -45 44 -45 20 0 20 0 0 14 -15 12 -16 17
-7 27 18 18 63 -4 63 -31 0 -23 18 -25 67 -8 40 15 52 5 28 -22 -21 -23 -9
-26 19 -5 22 17 66 20 66 6 0 -6 -5 -13 -11 -16 -7 -5 -6 -12 4 -23 8 -10 18
-26 22 -37 8 -20 9 -20 12 1 7 40 93 39 93 -1 0 -7 7 -18 15 -25 8 -7 15 -19
15 -27 0 -9 18 -43 41 -77 23 -33 42 -71 44 -84 3 -30 36 -65 48 -53 7 7 2 22
-14 43 -15 21 -23 43 -21 61 l3 28 35 -22 c25 -15 44 -19 67 -15 47 9 71 -11
63 -51 -6 -25 -13 -32 -42 -37 -36 -7 -40 -15 -24 -47 16 -29 44 -25 36 6 -9
37 8 30 43 -17 25 -34 31 -38 31 -21 0 12 -4 24 -9 28 -13 8 -8 78 6 82 34 12
104 -63 212 -228 34 -51 59 -90 55 -86 -15 14 -34 -17 -34 -55 0 -29 -7 -46
-26 -65 -14 -14 -29 -22 -33 -17 -74 90 -98 131 -49 87 35 -32 19 9 -39 94
-37 56 -68 91 -89 101 -31 14 -34 14 -64 -11 -38 -32 -56 -34 -65 -7 -6 19
-16 24 -43 21 -9 -2 -11 6 -6 24 6 24 5 25 -17 16 -27 -11 -161 -34 -196 -34
-28 0 -28 1 -37 29 -5 17 -3 22 10 20 9 0 19 5 21 12 3 6 -2 12 -11 12 -9 0
-16 5 -16 11 0 6 -6 9 -14 6 -8 -3 -18 5 -25 19 -6 13 -16 24 -22 24 -8 0 -10
17 -5 59 4 38 3 62 -4 66 -5 3 -10 1 -10 -4 0 -21 -21 -11 -30 15 -7 19 -7 31
1 40 9 11 5 17 -22 28 -40 17 -49 13 -49 -20 0 -19 -5 -24 -26 -24 -65 0 -109
23 -177 94 -88 91 -116 143 -167 306 -22 74 -60 186 -82 248 l-41 112 -264 0
-263 0 0 -201 0 -201 33 7 c24 5 28 4 17 -4 -8 -6 -23 -11 -32 -11 -17 0 -18
-35 -18 -595 l0 -595 960 0 c528 0 960 2 960 5 0 3 -15 19 -32 35 -26 23 -30
32 -19 39 9 5 23 3 42 -7 45 -26 47 -4 3 36 -54 49 -97 110 -90 127 2 7 14 18
24 24 17 9 21 7 27 -16 9 -37 67 -122 87 -129 10 -3 18 -10 18 -15 0 -6 4 -8
9 -5 5 4 18 -6 30 -21 19 -26 19 -23 -4 51 -25 80 -25 106 -1 74 7 -10 15 -15
18 -12 6 6 38 -58 38 -77 0 -12 8 -23 69 -85 l24 -24 323 0 322 0 -10 36 c-5
20 -7 38 -4 41 6 6 11 -6 20 -49 l6 -28 105 0 c93 0 105 2 105 18 1 16 1 16
14 0 11 -15 30 -18 116 -18 99 0 102 1 87 18 -24 26 -22 62 2 62 28 0 32 11
20 53 -7 25 -7 43 1 56 8 17 5 23 -20 38 -17 9 -33 25 -36 35 -3 10 -14 23
-25 28 -25 14 -25 40 1 40 11 0 20 5 20 10 0 6 11 10 23 10 13 0 32 9 43 21
14 15 26 19 50 15 29 -6 31 -4 32 24 0 17 -3 28 -8 25 -4 -3 -10 0 -12 7 -3 8
-12 5 -28 -10 -20 -18 -60 -31 -60 -19 0 2 21 18 46 36 31 23 53 32 70 28 20
-3 24 0 24 19 0 13 -3 24 -7 24 -5 0 -14 4 -22 9 -11 7 -8 16 13 47 14 21 26
44 26 51 0 7 19 36 43 65 50 62 71 110 54 127 -6 6 -7 14 -3 18 4 4 11 1 16
-7 7 -12 12 -12 22 -2 10 10 10 17 0 32 -6 11 -12 27 -12 35 0 9 -7 18 -15 21
-11 5 -12 11 -4 25 10 20 -4 28 -17 8 -4 -8 -9 -7 -16 2 -6 10 -7 7 -3 -9 5
-16 1 -24 -11 -29 -10 -4 -19 -2 -22 5 -5 15 -32 16 -32 2 0 -5 -7 -10 -16
-10 -12 0 -14 7 -9 30 5 24 4 29 -8 24 -27 -10 -27 12 -1 35 29 25 44 23 19
-3 -9 -9 -13 -16 -9 -16 4 0 22 16 39 36 20 23 35 32 39 25 4 -6 14 -11 21
-11 11 0 14 11 12 40 -2 33 -5 40 -23 40 -12 0 -25 -7 -28 -16 -3 -8 -11 -12
-17 -9 -5 4 -8 10 -5 13 3 3 -1 13 -10 23 -14 16 -14 18 3 23 18 6 68 104 58
114 -3 3 -13 -2 -23 -11 -23 -21 -32 -21 -32 -2 0 26 -37 17 -44 -10 -4 -17
-12 -25 -24 -23 -9 2 -17 -4 -18 -12 0 -8 -2 -23 -2 -32 -1 -10 -12 -28 -24
-40 -13 -13 -23 -30 -23 -38 0 -8 -10 -19 -22 -25 -26 -11 -30 -25 -9 -25 11
0 11 -7 -3 -36 -13 -29 -20 -35 -40 -31 -35 7 -50 -1 -44 -23 4 -14 -2 -22
-21 -30 -14 -5 -26 -14 -26 -20 0 -5 -16 -16 -35 -24 -31 -13 -35 -19 -35 -50
0 -26 -5 -36 -21 -41 -15 -5 -19 -13 -16 -27 4 -14 -1 -22 -19 -28 -13 -5 -24
-14 -24 -19 0 -6 7 -8 15 -5 11 5 13 2 9 -9 -5 -13 -9 -14 -25 -4 -17 11 -23
28 -22 65 1 6 -8 12 -18 12 -11 0 -19 3 -19 7 0 4 49 55 108 113 99 96 174
179 211 234 l15 21 -24 -20 c-13 -11 -33 -28 -45 -38 -52 -47 -132 -92 -165
-94 -19 -1 -38 -2 -42 -2 -4 -1 -12 -11 -19 -22 -10 -20 -9 -21 14 -15 14 3
32 9 41 12 9 3 16 2 16 -2 0 -11 -107 -79 -137 -89 -26 -7 -28 -3 -11 28 20
37 17 57 -8 57 -38 0 -40 30 -8 127 7 22 22 56 34 75 l21 33 -7 -30 c-12 -62
-25 -157 -21 -162 12 -11 58 12 70 36 36 68 47 85 48 76 0 -5 4 0 10 13 6 16
15 22 31 20 18 -2 23 2 23 19 0 12 15 37 33 56 18 18 32 43 32 55 0 13 6 22
14 22 21 0 56 49 121 170 32 58 64 116 71 130 26 47 21 50 -78 50 -51 0 -185
3 -297 7 -192 6 -204 5 -198 -11z m-839 -292 c26 -15 52 -37 56 -50 6 -15 18
-24 32 -24 12 0 37 -14 55 -32 24 -23 33 -27 33 -16 0 9 -6 18 -12 21 -10 3
-10 7 -1 17 16 17 33 4 33 -25 0 -15 7 -26 20 -30 11 -3 20 -9 20 -13 0 -4 3
-17 6 -29 5 -18 2 -23 -13 -23 -10 0 -23 -4 -28 -9 -21 -20 -105 -13 -105 9 0
6 -6 10 -14 10 -9 0 -12 -7 -9 -20 4 -14 0 -20 -11 -20 -9 0 -16 8 -16 20 0
17 -3 19 -20 10 -11 -6 -17 -16 -14 -25 7 -16 -10 -19 -126 -16 -176 5 -409
-28 -467 -65 -19 -12 -28 -11 -64 1 -23 8 -52 15 -64 15 -13 0 -56 11 -97 25
-40 14 -86 25 -102 25 -16 0 -38 8 -48 17 -16 14 -21 15 -28 4 -14 -24 -42 35
-47 99 -5 61 7 78 31 45 8 -11 15 -12 26 -4 11 8 12 12 3 16 -22 8 -14 25 9
21 12 -2 28 -13 34 -25 6 -13 14 -20 19 -15 4 4 5 -2 1 -12 -7 -22 13 -45 67
-75 34 -19 35 -19 40 -1 3 12 -10 31 -40 59 -24 23 -41 46 -38 52 4 5 1 8 -6
7 -6 -2 -14 3 -16 10 -9 24 33 11 72 -23 22 -19 42 -35 46 -35 3 0 16 -14 28
-31 13 -18 19 -29 12 -25 -6 4 -11 1 -11 -6 0 -16 109 -47 185 -53 30 -3 41
-1 26 3 -23 7 -23 8 11 26 23 12 46 17 69 14 46 -7 335 28 343 41 3 4 23 5 45
3 29 -3 42 -9 46 -23 4 -11 16 -19 27 -19 20 0 20 1 4 19 -16 18 -16 19 13 32
17 8 31 16 31 20 0 9 -54 56 -72 62 -10 4 -18 13 -18 21 0 8 -3 21 -6 30 -8
21 -4 20 50 -10z m662 -329 c-10 -20 -24 -39 -32 -42 -8 -3 -14 -12 -14 -20 0
-8 -9 -17 -19 -20 -27 -7 -32 -37 -15 -85 8 -22 14 -57 14 -78 0 -23 9 -51 24
-73 17 -25 21 -38 13 -46 -8 -8 -15 -2 -25 22 -23 51 -52 166 -46 181 3 8 1
17 -5 21 -6 3 -11 16 -11 28 0 12 -7 31 -15 41 -8 11 -15 30 -15 42 0 20 4 21
44 17 39 -5 47 -2 76 26 40 38 48 33 26 -14z m-1092 16 c39 -1 39 -1 20 -22
-18 -20 -18 -21 9 -69 15 -26 27 -53 27 -60 0 -7 11 -26 25 -44 38 -46 40 -50
50 -66 9 -14 -53 28 -139 94 -35 27 -37 31 -21 42 16 12 16 13 -7 19 -13 3
-28 5 -34 4 -29 -5 -36 2 -54 64 -7 23 -6 29 11 35 11 5 32 7 47 6 15 -1 45
-2 66 -3z m201 -51 c4 -6 11 -8 16 -5 5 4 9 0 9 -8 0 -8 18 -53 41 -101 22
-48 43 -108 45 -134 3 -25 11 -53 19 -62 8 -9 15 -22 15 -28 0 -7 3 -12 8 -12
4 0 7 -15 7 -32 0 -18 3 -34 8 -35 9 -4 47 -41 47 -48 0 -2 -7 -2 -15 1 -8 4
-15 1 -15 -6 0 -22 -38 30 -45 60 -3 15 -15 36 -27 46 -11 11 -43 47 -70 82
-43 53 -48 65 -37 78 11 13 9 19 -11 35 -14 10 -20 19 -15 19 10 0 45 55 45
71 0 18 -28 9 -33 -11 -6 -24 -29 -26 -47 -5 -10 13 -10 19 5 35 10 11 15 26
11 36 -10 25 26 46 39 24z m1006 -440 c28 -22 58 -40 67 -41 10 -1 6 -4 -8 -8
-39 -11 -33 -43 12 -56 46 -13 57 -24 35 -36 -23 -14 -22 -24 13 -74 23 -34
29 -51 24 -72 -4 -22 -3 -25 5 -13 8 12 11 12 11 2 0 -8 -9 -27 -21 -43 -11
-16 -23 -45 -26 -64 -7 -44 -23 -36 -23 12 0 40 -25 136 -45 173 -16 30 -36
104 -39 142 -1 15 -11 38 -23 50 -23 26 -47 68 -38 68 3 0 28 -18 56 -40z"/>
<path d="M3433 1636 c5 -12 0 -16 -18 -16 -15 0 -33 -12 -49 -33 -15 -19 -26
-37 -26 -40 0 -3 -13 -25 -29 -49 -26 -39 -33 -62 -45 -148 -2 -14 -4 -28 -5
-32 0 -5 -7 -8 -13 -8 -16 -1 -49 -30 -64 -55 -6 -11 -22 -22 -35 -25 -16 -4
-23 -12 -21 -24 2 -10 -2 -24 -9 -32 -17 -21 -3 -29 26 -14 19 10 27 10 39 1
20 -17 39 -4 33 21 -8 29 30 106 61 123 15 8 38 30 52 49 14 20 33 36 43 36
12 0 17 8 18 28 l0 27 10 -25 c7 -17 7 -26 0 -28 -15 -5 -14 -32 0 -32 7 0 35
21 63 46 85 77 91 81 104 77 6 -3 12 -14 12 -26 0 -35 15 -6 19 37 1 4 8 5 17
2 12 -4 15 -2 10 9 -3 9 3 19 15 25 11 6 17 15 13 21 -3 5 0 17 7 26 11 13 10
17 -4 28 -9 6 -14 15 -10 18 3 4 -2 7 -13 8 -10 0 -28 2 -39 3 -134 18 -168
18 -162 2z"/>
<path d="M2380 1600 c11 -16 25 -32 31 -35 5 -4 7 -10 4 -15 -7 -12 22 -33 36
-25 6 4 15 1 20 -6 14 -22 11 -29 -13 -29 -21 -1 -21 -2 -5 -11 20 -12 23 -69
5 -87 -6 -6 -8 -15 -4 -19 4 -4 26 12 49 37 27 28 49 44 62 42 34 -4 101 75
81 95 -3 4 -1 12 5 19 6 7 8 18 4 24 -8 13 -35 13 -35 -1 0 -6 -6 -9 -12 -6
-7 2 -12 14 -10 25 3 22 1 22 -118 22 l-121 0 21 -30z"/>
<path d="M3722 328 c-7 -7 -12 -18 -12 -25 0 -7 -4 -13 -10 -13 -13 0 -13 -57
-1 -65 5 -3 12 -36 16 -73 9 -91 32 -142 63 -142 23 0 24 2 20 57 -4 59 -46
252 -58 266 -3 4 -11 2 -18 -5z"/>
</g>
</svg>
